<svg xmlns="http://www.w3.org/2000/svg" xml:space="preserve" viewBox="0 0 1080 1080"><path fill="#FFF" d="M645 1h435.955v1080c-170.648 0-341.342 0-512.25-.333 22.026-3.091 44.4-5.053 66.478-8.775 46.487-7.835 90.826-22.763 133.263-43.237 40.673-19.622 78.394-43.937 112.467-73.561 15.671-13.625 30.055-28.73 45.312-43.326.744-.85 1.121-1.61 1.665-2.218 21.677-24.259 41.89-49.648 58.538-77.664 8.294-13.957 15.864-28.344 24.2-42.648 7.376-.475 14.413-.23 21.232-1.327 14.648-2.357 27.041-18.343 25.788-33.19-10.188 0-20.443 0-30.661-.367.448-1.803.728-3.292 1.291-4.665 10.937-26.678 19.232-54.173 25.44-82.309 7.719-34.976 11.778-70.38 12.664-106.262 7.894-1.28 9.665-3.165 9.681-10.327.04-18.072.046-36.143.007-54.215-.015-6.79-2.828-9.448-9.764-9.652-1.777-.053-3.546-.424-5.31-1.09-.285-2.236-.63-4.026-.863-5.83-3.526-27.36-9.708-54.13-17.784-80.484-2.811-9.175-5.643-18.345-7.986-27.54 10.748-.023 21.016-.023 31.34-.023V216.672h-6.254c-36.654 0-73.309.014-109.964-.03-2.475-.003-4.949-.438-7.571-.975-7.27-8.397-13.918-16.975-21.612-24.48-15.57-15.188-31.088-30.537-47.761-44.462-23.223-19.395-48.052-36.85-74.82-51.025-21.114-11.182-43.15-20.622-64.84-31.199-1.9-6.347-3.739-12.331-5.639-18.518-2.275.204-4.245.346-6.206.563-8.192.907-16.666 2.69-21.227-7.174-.197-.427-.632-.783-1.029-1.073-2.343-1.712-2.634-3.736-1.739-6.507 1.817-5.622 3.233-11.374 4.829-17.126-5.085-2.703-9.69-5.367-14.51-7.557-1.151-.523-3.539.023-4.469.96-3.26 3.284-6.155 6.934-9.142 10.483-2.582 3.068-16.785 3.097-19.342-.006-.208-.252-.334-.573-.49-.866L645 1zM510 1081H1.047V1c213.648 0 427.342 0 641.328.325-4.117 1.761-8.477 3.382-12.952 4.563-2.432.641-3.148 1.47-2.795 4.099.681 5.086.898 10.244 1.101 15.38.047 1.176-.393 2.79-1.215 3.501-2.233 1.928-4.79 3.48-7.618 5.022-20.36-2.07-40.29-5.038-60.29-5.607-21.73-.619-43.579.252-65.273 1.862-18.304 1.358-36.585 4.02-54.656 7.316-35.066 6.395-69.02 16.859-101.825 30.814-12.823 5.455-25.273 11.788-38.275 17.72-1.62-.354-3.085-.393-4.063-1.104-21.56-15.684-45.276-20.96-71.396-15.113-3.184.713-5.496-.115-8.144-2.906-7.37-7.768-14.781-15.913-23.575-21.828-17.626-11.856-37.418-16.157-58.783-13.136-30.551 4.32-52.835 20.494-67.455 47.08-10.71 19.476-13.28 40.441-7.577 62.147.748 2.844.526 4.895-2.724 5.746-9.77 2.557-18.364 7.196-26.21 13.65-16.098 13.246-24.587 30.377-25.452 50.857-.557 13.19 3.079 25.712 10.018 37.308 8.597 14.364 21.022 23.586 36.292 29.63 10.844 4.292 22.142 3.651 33.419 3.755 1.68.016 3.35 1.108 4.738 1.902-7.419 13.398-14.553 26.596-22.079 39.89-14.76 2.396-23.522 12.543-23.587 26.944-.048 10.432-.108 20.864-.4 31.541-10.506 30.265-18.706 60.837-22.625 92.345-2.676 21.513-4.733 43.155-5.766 64.802-.782 16.396.325 32.897.919 49.339.286 7.94.957 15.906 2.104 23.765 2.46 16.864 5.342 33.666 7.989 50.873-.526 1.802-.914 3.253-1.462 4.64-7.003 17.72-6.305 35.385.427 52.974 4.2 10.974 11.607 19.696 19.853 28.26-.025 20.766-.28 41.06.054 61.344.207 12.532 6.901 24.799 22.54 26.304 8.72.839 17.537.647 26.305 1.038 1.72.077 3.415.7 5.14 1.412.326.918.59 1.524.948 2.067 16.468 24.94 34.673 48.525 55.105 70.79 18.94 19.916 38.64 38.531 60.003 55.371 41.3 32.558 86.337 58.578 135.38 77.568 47.656 18.45 96.898 30.074 147.929 33.868 4.54.338 9.04 1.241 13.558 1.882z"/><path fill="#F8BB51" d="M510.469 1081c-4.987-.64-9.486-1.544-14.027-1.882-51.031-3.794-100.273-15.417-147.928-33.868-49.044-18.99-94.081-45.01-135.381-77.568-21.362-16.84-41.062-35.455-59.71-55.674 1.94-.735 3.74-.987 5.54-.99 22.364-.044 44.728-.05 67.556-.044 25.39.021 50.317.037 75.244.012 30.74-.03 61.482-.096 92.688-.08 18.165.023 35.864-.023 54.028-.015 21.753.016 43.04-.02 64.807-.007 70.928.042 141.378.034 212.287.06 57.412.011 114.365-.01 171.794-.003 5.95.037 11.429-.064 16.9.097 3.895.114 7.779.582 11.668.892-14.967 14.434-29.351 29.539-45.022 43.164-34.073 29.624-71.794 53.939-112.467 73.561-42.437 20.474-86.776 35.402-133.263 43.237-22.077 3.722-44.452 5.684-66.937 8.775-19.267.333-38.288.333-57.777.333z"/><path fill="#7DCEDC" d="M619.294 34.048c2.43-1.7 4.987-3.252 7.22-5.18.822-.71 1.262-2.325 1.215-3.5-.203-5.137-.42-10.295-1.101-15.381-.353-2.628.363-3.458 2.795-4.1 4.475-1.18 8.835-2.8 13.41-4.562C643.444 1 643.89 1 644.667 1c3.305 5.56 6.277 11.12 9.25 16.68.156.293.282.614.49.866 2.557 3.103 16.76 3.074 19.342.006 2.987-3.55 5.883-7.199 9.142-10.483.93-.937 3.318-1.483 4.47-.96 4.82 2.19 9.424 4.854 14.509 7.557-1.596 5.752-3.012 11.504-4.829 17.126-.895 2.771-.604 4.795 1.74 6.507.396.29.83.646 1.028 1.073 4.561 9.865 13.035 8.08 21.227 7.174 1.96-.217 3.93-.359 6.206-.563 1.9 6.187 3.738 12.171 5.34 18.697-2.548 1.86-4.754 3.438-7.195 4.449-7.39 3.062-13.18 7.089-11.506 16.44.055.303-.062.677-.202.968-1.464 3.043.072 4.942 2.328 6.793 4.36 3.577 8.592 7.308 13.076 11.145-2.361 4.444-4.943 8.543-6.764 12.955-1.632 3.952-3.527 4.588-7.56 3.213-8.326-2.838-16.876-7.287-24.418 2.467-1.957 2.53-3.529 4.282-3.146 7.57.52 4.451.808 8.948.829 13.426.006 1.302-.952 3.421-1.96 3.778-5.41 1.916-10.976 3.394-16.467 5.018-1.912-3.397-3.78-6.185-5.122-9.208-2.766-6.225-5.967-11.532-14.168-9.92-.593.117-1.3-.232-1.93-.435-3.535-1.136-5.902.24-8.116 3.07-3.34 4.268-7.084 8.219-10.721 12.379-4.929-2.738-9.37-5.366-13.963-7.696-2.603-1.32-3.094-3.05-2.311-5.653 1.387-4.615 2.718-9.251 3.87-13.929.311-1.266.402-3.072-.27-4.019-7.604-10.729-7.65-10.696-21.443-9.63-.498.038-1.014-.044-1.496.054-5.075 1.039-8.15-.555-8.931-6.084-.414-2.932-1.414-5.828-2.498-8.605-1.161-2.973-.203-4.598 2.475-5.976 4.139-2.131 8.186-4.457 12.161-6.881 1.158-.706 2.512-1.891 2.805-3.093 2.77-11.366 1.595-14.593-7.576-22.062-.387-.316-.818-.577-1.201-.896-5.708-4.744-5.713-4.749-2.26-11.176 1.497-2.786 2.761-5.755 4.655-8.243.883-1.158 3.155-2.127 4.551-1.865 4.39.821 8.705 2.142 12.97 3.51 3.432 1.102 6.207.743 8.216-2.496M671.91 92.43c1.039-1.289 2.189-2.505 3.1-3.88 5.104-7.706 4.61-17.777-1.166-25.029-5.26-6.604-15.303-9.399-23.45-6.525-8.765 3.093-14.45 10.934-14.372 20.033.074 8.608 4.147 14.968 11.676 18.834 8.42 4.324 16.372 2.75 24.212-3.433z"/><path fill="#FCDA80" d="M618.896 33.89c-1.611 3.397-4.386 3.756-7.817 2.655-4.266-1.37-8.58-2.69-12.97-3.511-1.397-.262-3.67.707-4.552 1.865-1.894 2.488-3.158 5.457-4.655 8.243-3.453 6.427-3.448 6.432 2.26 11.176.383.32.814.58 1.201.896 9.17 7.469 10.345 10.696 7.576 22.062-.293 1.202-1.647 2.387-2.805 3.093-3.975 2.424-8.022 4.75-12.161 6.88-2.678 1.379-3.636 3.004-2.475 5.977 1.084 2.777 2.084 5.673 2.498 8.605.781 5.53 3.856 7.123 8.93 6.084.483-.098 1-.016 1.497-.054 13.794-1.066 13.839-1.099 21.444 9.63.67.947.58 2.753.269 4.02-1.152 4.677-2.483 9.313-3.87 13.928-.783 2.602-.292 4.332 2.311 5.653 4.593 2.33 9.034 4.958 13.963 7.696 3.637-4.16 7.381-8.11 10.72-12.378 2.215-2.83 4.582-4.207 8.116-3.071.632.203 1.338.552 1.93.436 8.202-1.613 11.403 3.694 14.169 9.92 1.342 3.022 3.21 5.81 5.122 9.207 5.491-1.624 11.057-3.102 16.467-5.018 1.008-.357 1.966-2.476 1.96-3.778-.021-4.478-.31-8.975-.829-13.426-.383-3.288 1.19-5.04 3.146-7.57 7.542-9.754 16.092-5.305 24.419-2.467 4.032 1.375 5.927.74 7.559-3.213 1.821-4.412 4.403-8.51 6.764-12.955-4.484-3.837-8.717-7.568-13.076-11.145-2.256-1.85-3.792-3.75-2.328-6.793.14-.291.257-.665.202-.968-1.675-9.351 4.115-13.378 11.506-16.44 2.44-1.011 4.647-2.59 7.259-4.087 21.925 10.036 43.961 19.476 65.075 30.658 26.768 14.175 51.597 31.63 74.82 51.025 16.673 13.925 32.19 29.274 47.76 44.462 7.695 7.505 14.343 16.083 21.14 24.521-40.229.346-80.133.346-120.153.346v155.949h212.595c2.823 9.172 5.655 18.342 8.466 27.517 8.076 26.353 14.258 53.125 17.784 80.484.232 1.804.578 3.594.395 5.823-20.5.372-40.524.311-60.543-.226.004-14.92.004-29.363.004-44.026h-247.68c-.108 1.536-.26 2.685-.26 3.834-.008 102.948-.051 205.896.034 308.844.018 22.682 19.562 38.392 42.006 34.214 2.13.431 3.947.667 5.763.668 68.118.017 136.236.011 204.354.02 1.995 0 3.99.127 5.983.195-7.897 14.192-15.467 28.579-23.76 42.536-16.65 28.016-36.862 53.405-58.539 77.664-.544.609-.92 1.368-1.665 2.218-4.179-.148-8.063-.616-11.958-.73-5.471-.16-10.95-.06-16.864-.504-1.124-4.18-1.528-8.004-2.545-11.657-3.967-14.243-9.716-27.556-20.998-38.178-13.873-14.22-30.684-21.64-49.923-23.974-23.955-2.906-46.445 1.012-66.168 15.509-15.822 11.63-25.778 27.402-30.182 46.976-.989 4.083-1.73 7.892-2.473 11.7-70.45.008-140.9.016-211.81-.417-2.101-23.248-19.671-36.897-42.81-35.524-8.777.521-17.615.025-26.435-.473.017-12.112.045-23.76.532-35.435 75.124-.04 149.788-.097 224.452-.027 15.297.014 27.56-11.222 27.214-26.771-.487-21.822-.113-43.662-.11-65.495.002-6.89 0-6.887-7.078-6.887-181.327-.002-362.654-.004-543.97-.205.01-.197.097-.586.553-.576 183.698.01 366.939.01 550.694.01v-5.958c.001-126.973.009-253.945-.031-380.918-.001-3.139-.097-6.392-.89-9.396-3.27-12.393-13.154-18.98-28.081-18.98-197.291-.007-394.582-.006-591.872-.01-3.165 0-6.33-.046-9.494-.07 7.134-13.199 14.268-26.397 22.158-39.734 75.053-.128 149.35-.07 223.646-.19 6.763-.01 13.61-.69 20.272-1.875 33.84-6.024 57.425-42.26 49.473-75.782-5.49-23.14-19.373-39.387-41.832-46.9-7.352-2.459-8.092-6.52-8.595-12.324-2.152-24.826-13.468-44.847-32.142-60.977 12.62-5.933 25.07-12.266 37.894-17.721 32.805-13.955 66.759-24.42 101.825-30.814 18.07-3.295 36.352-5.958 54.656-7.316 21.694-1.61 43.543-2.48 65.273-1.862 20 .569 39.93 3.537 60.29 5.607m-142.43 32.09c-12.853 3.928-13.216 3.975-11.575 16.526 1.239 9.481.767 17.65-9.242 22.217-1.025.468-1.977 1.317-2.687 2.209-1.876 2.356-3.96 2.254-6.646 1.428-7.284-2.241-14.67-4.155-22.392-6.303l-12.078 22.152c6.142 5.43 12.128 10.685 18.067 15.993 2.158 1.929 1.673 20.668-.571 22.484-.764.617-1.744.965-2.615 1.453-5.805 3.258-11.686 6.395-17.348 9.886-1.144.706-2.31 2.973-2.012 4.152 1.626 6.44 3.585 12.807 5.75 19.09.365 1.061 2.306 2.27 3.492 2.243 5.651-.131 11.336-.36 16.925-1.148 5.047-.71 8.932-.212 11.49 4.942 1.296 2.61 3.516 4.877 5.684 6.907 2.255 2.11 2.703 4.103 1.775 7.064-2.318 7.4-4.262 14.916-6.387 22.498 6.69 3.592 13.06 6.846 19.25 10.415 2.495 1.44 3.84.692 5.45-1.218 4.294-5.093 8.78-10.023 13.087-15.105 1.615-1.907 3.007-2.885 5.885-2.218 4.172.968 8.615.713 12.855 1.467 1.797.32 4.034 1.474 4.937 2.945 4.164 6.783 7.928 13.812 11.92 20.903 7.308-2.077 14.375-3.914 21.29-6.204 1.29-.427 2.834-2.697 2.795-4.076-.175-6.314-.758-12.625-1.424-18.913-.38-3.58.09-6.2 3.733-8.166 3.166-1.707 6.049-4.223 8.497-6.894 2.195-2.396 4.243-2.459 7.012-1.607 6.195 1.908 12.418 3.76 18.72 5.253 1.463.346 4.153-.313 4.803-1.395 3.826-6.373 7.216-13.008 10.842-19.719-6.013-5.303-11.688-10.429-17.51-15.383-2.208-1.879-3.287-3.55-2.507-6.768.97-3.996.64-8.291 1.39-12.362.324-1.763 1.563-3.912 3.041-4.816 6.783-4.147 13.796-7.917 20.907-11.925-1.076-3.674-2.005-7.014-3.037-10.323-1.384-4.436-1.594-10.6-4.632-12.773-2.98-2.13-8.87-.188-13.483-.031-.5.017-1.015-.022-1.495.086-8.217 1.843-14.833.257-18.616-8.184-.71-1.585-2.712-2.56-3.568-4.118-.83-1.509-1.63-3.567-1.266-5.105 1.608-6.787 3.762-13.444 5.422-20.22.34-1.388-.085-3.95-1.023-4.505-6.542-3.865-13.311-7.344-20.189-11.043-5.289 6.081-10.198 11.953-15.405 17.548-1.272 1.368-3.576 2.685-5.312 2.572-16.75-1.085-16.744-1.173-24.874-15.68-5.519-9.848-5.519-9.848-17.125-6.231m242.798 106.834c-35.101 3.324-52.532 41.082-42.907 63.678 10.206-22.406 30.356-36.545 48.734-33.807v10.562l37.738-25.994-37.957-26.129v10.76c-1.809.318-3.275.575-5.608.93m26.977 97.046c26.372-12.027 34.661-41.855 27.51-59.817-8.874 21.916-25.054 33.203-48.735 35.003v-11.259l-37.678 25.955 37.814 26.063v-9.97c7.301-2.041 13.84-3.87 21.09-5.975z"/><path fill="#F37C5A" d="M1034.363 371.98c-71.227.023-141.974.023-213.075.023v-155.95c40.02 0 79.924 0 120.3-.04 2.948.191 5.422.626 7.897.629 36.655.044 73.31.03 109.964.03h6.254v155.285c-10.324 0-20.592 0-31.34.023M918.808 290.5v38.943l52.79-35.448-52.79-35.116V290.5z"/><path fill="#FCDA81" d="M1065.99 561.186c-.494 35.813-4.553 71.218-12.272 106.194-6.208 28.136-14.503 55.63-25.44 82.309-.563 1.373-.843 2.862-1.749 4.721-65.925.456-131.357.49-196.789.51-1.49.001-2.982-.15-4.155-.441 58.213-.21 116.109-.21 174.396-.21 0-65.006 0-128.976.463-193.03 22.157-.073 43.851-.063 65.546-.053z"/><path fill="#7DCEDC" d="M1066.382 561.118c-22.087.058-43.781.048-66.398.037-14.085-.02-27.247-.016-40.408-.067-7.804-.03-10.588-2.782-10.6-10.486-.026-17.161-.014-34.322-.004-51.483.005-10.313 2.585-12.876 13.026-12.922 12.66-.056 25.322-.081 37.983-.12 20.023.061 40.047.122 60.539.19 2.24.233 4.009.604 5.786.657 6.936.204 9.75 2.861 9.764 9.652.04 18.072.033 36.143-.007 54.215-.016 7.162-1.787 9.047-9.68 10.327m-87.515-47.136 10.535 2.234 2.87-3.522c-6.896-6.717-18.245-6.519-24.468.075-5.843 6.191-5.5 17.517.699 23.024 7.017 6.234 17.275 5.604 23.671-1.63-1.388-1.939-2.126-4.303-5.644-2.332-6.636 3.718-12.564 1.872-15.354-4.28-2.612-5.762-.187-10.51 7.69-13.569m31.193 2.468-.411 4.687h-10.321v5.452l10.495.558.512 10.751 5.351-.235.556-10.587 10.755-.533-.29-5.798h-10.99v-10.828l-5.656.303v6.23m23.929 7.056c-.342 2.697 1.02 3.508 3.506 3.375 2.394-.128 4.8-.027 7.305-.027l.532 11.056 5.048-.261c.41-3.714-.382-8.256 1.422-9.838 2.094-1.836 6.466-1.074 10.201-1.478l-.302-5.556h-10.619l-.526-10.851c-1.99.107-3.536.19-5.272.285l-.483 10.767c-2.095 0-3.914-.214-5.656.06-1.741.274-3.405 1.037-5.156 2.468z"/><path fill="#464F58" d="M825.267 754.688c1.491.081 2.982.233 4.473.233 65.432-.021 130.864-.055 196.754-.144 10.711-.057 20.966-.057 31.154-.057 1.253 14.848-11.14 30.834-25.788 33.191-6.82 1.098-13.856.852-21.232 1.327-2.433.044-4.427-.082-6.422-.083-68.118-.009-136.236-.003-204.354-.02-1.816 0-3.633-.237-5.348-.707 16.7-5.066 25.06-16.506 26.776-33.421l3.987-.319z"/><path fill="#F2F2F2" d="M298.577 85.995c19.055 16.131 30.371 36.152 32.523 60.978.503 5.803 1.243 9.865 8.595 12.324 22.459 7.513 36.343 23.76 41.832 46.9 7.952 33.522-15.634 69.758-49.473 75.782-6.662 1.186-13.51 1.864-20.272 1.875-74.297.12-148.593.062-223.36-.01-2.146-.655-3.816-1.747-5.495-1.763-11.277-.104-22.575.537-33.419-3.755-15.27-6.044-27.695-15.266-36.292-29.63-6.94-11.596-10.575-24.117-10.018-37.308.865-20.48 9.354-37.611 25.452-50.856 7.846-6.455 16.44-11.094 26.21-13.651 3.25-.851 3.472-2.902 2.724-5.746-5.703-21.706-3.133-42.67 7.577-62.147 14.62-26.586 36.904-42.76 67.455-47.08 21.365-3.02 41.157 1.28 58.783 13.136 8.794 5.915 16.205 14.06 23.575 21.828 2.648 2.791 4.96 3.619 8.144 2.906 26.12-5.847 49.836-.57 71.396 15.113.978.711 2.444.75 4.063 1.104m-65.569 97.432-12.176 25.172c-5.103-10.637-9.55-20.117-14.243-29.473-.76-1.518-2.498-3.34-3.986-3.543-3.715-.509-7.546-.168-11.263-.168v52.889h8.634v-38.825c1.44.877 2.104 1.923 2.657 3.025 4.702 9.364 9.294 18.785 14.163 28.061.75 1.429 2.681 2.925 4.18 3.055 1.2.103 3.091-1.554 3.79-2.892 4.925-9.433 9.61-18.993 14.406-28.494.606-1.2 1.42-2.292 2.871-4.602v40.597h8.572v-52.113c-11.034-2.374-13.37-1.46-17.605 7.31M86.294 216.48v11.893h9.098v-21.178h26.328v21.001h8.736V175.71h-8.918v22.294H95.356v-22.266h-9.061v40.742m53.833-36.925c-.616 3.602 1.032 4.632 4.455 4.387 3.742-.268 7.518-.061 11.784-.061v44.51h8.805v-44.5h15.773v-8.505c-12.856 0-25.332-.076-37.803.142-1.022.018-2.009 2.049-3.014 4.027m144.388 40.418H274.12v-44.287h-8.544v52.624h32.686v-8.337h-13.745zM145.088 739.874l543.981.007c7.077 0 7.08-.003 7.079 6.887-.004 21.833-.378 43.673.109 65.495.347 15.549-11.917 26.785-27.214 26.77-74.664-.07-149.328-.012-224.933-.003-50.678.004-100.416.011-150.62.006-24.128-.021-47.791-.048-71.454-.034-41.66.024-83.318.072-124.977.11-1.707-.37-3.402-.993-5.122-1.07-8.768-.391-17.584-.199-26.304-1.038-15.64-1.505-22.334-13.772-22.54-26.304-.335-20.284-.08-40.578.244-61.182 5.993 3.078 11.36 7.213 17.4 9.734 24.733 10.32 48.34 7.693 70.302-7.727 4.963-3.485 9.38-7.747 14.049-11.65m229.065 33.25c-.82-.143-1.637-.313-2.461-.427-9.271-1.281-17.322 4.498-18.988 13.621-1.589 8.699 3.98 17.176 12.682 19.305 8.13 1.99 16.82-2.746 19.646-10.706 3.118-8.78-.753-17.007-10.879-21.792z"/><path fill="#464F58" d="M65.586 323.873c3.556-.071 6.721-.026 9.886-.026 197.29.005 394.58.004 591.872.011 14.927 0 24.812 6.587 28.081 18.98.793 3.004.889 6.257.89 9.396.04 126.973.032 253.945.03 380.918v5.959c-183.754 0-366.995 0-550.709-.36 7.062-9.98 11.222-21.14 14.773-32.774 116.165.02 231.855.022 347.545.018 1.328 0 2.657-.095 4.299-.004 10.056 9.813 19.798 19.484 30.083 29.694 1.706-2.033 2.877-3.678 4.293-5.074 8.404-8.287 16.864-16.516 25.773-24.698 30.4.066 60.33.066 90.317.066V357.567H75.47c0 89.053 0 177.694-.415 266.38-12.663 2.447-23.298 8.156-32.986 15.444-.054-82.736-.062-165.016-.081-247.296-.001-3.328-.1-6.655-.152-9.983.055-10.431.115-20.863.163-31.295.065-14.401 8.827-24.548 23.587-26.944z"/><path fill="#7DCDDB" d="M42.112 639.846c9.645-7.743 20.28-13.452 33.321-15.943 12.95-2.102 24.93-1.303 36.972 2.424 4.674 2.113 9.115 3.981 13.732 6.129 4.462 3.75 8.748 7.221 13.207 10.953 2.04 2.122 3.905 3.983 5.912 6.135 2.362 3.677 4.582 7.062 6.908 10.766 1.053 2.124 2 3.93 2.95 6.11.353 1.48.882 2.563 1.027 3.696.771 6.012 4.27 7.301 9.936 7.024 10.089-.494 20.22-.139 30.578-.139v6.317h-36.722v22.64c-3.075 11.653-7.235 22.812-14.753 32.783.016.349-.07.738-.082.935-4.679 4.102-9.096 8.364-14.059 11.849-21.962 15.42-45.57 18.047-70.302 7.727-6.04-2.52-11.407-6.656-17.381-10.21-8.564-8.25-15.97-16.972-20.17-27.946-6.733-17.59-7.431-35.254-.428-52.974.548-1.387.936-2.838 1.683-4.885 6.08-8.213 11.875-15.802 17.671-23.391m38.821 58.98c.243-.414.48-1.186.73-1.19 4.935-.095 10.171-1.031 14.636.407 1.466.472.942 7.15 1.306 10.99.06.631.008 1.272.008 1.829 5.418 1.651 6.187 1.152 6.242-3.89.032-2.826-.004-5.654-.007-8.482-.007-6.154.177-12.319-.165-18.454-.075-1.336-2.032-2.567-3.122-3.846-.888 1.231-2.352 2.378-2.546 3.71-.403 2.77.124 5.674-.258 8.45-.172 1.252-1.534 3.26-2.478 3.331-4.58.349-9.203.157-14.44.157 0-4.505.255-8.472-.152-12.37-.125-1.195-2.066-3.053-3.175-3.053-1.114 0-3.166 1.912-3.196 3.03a554.728 554.728 0 0 0-.013 28.934c.03 1.173 1.97 2.297 3.026 3.444 1.168-1.197 3.074-2.247 3.347-3.621.54-2.723.177-5.624.257-9.375m-32.459-22.67c-.997 0-2.009.112-2.989-.018-4.148-.549-5.526 1.208-5.406 5.344.255 8.8-.055 17.617.222 26.416.043 1.338 1.99 2.616 3.056 3.921.916-1.203 2.515-2.342 2.635-3.62.655-6.97.53-6.981 7.407-7.14.997-.023 2 .017 2.99-.078 7.104-.685 11.106-4.689 11.441-11.407.358-7.175-3.131-11.41-10.534-12.597-2.61-.418-5.264-.555-8.822-.82m90.684 6.409c-6.867-9.32-16.71-5.294-25.685-6.573v35.835l5.295-.308c.137-1.391.292-2.361.319-3.335.193-6.968.185-6.968 7.049-7.125 12.027-.276 16.256-5.91 13.022-18.494z"/><path fill="#FDDA80" d="M97.077 839.454c41.64-.38 83.3-.428 124.959-.452 23.663-.014 47.326.013 71.491.496.506 12.153.51 23.83.042 35.53-11.119.035-21.77-.096-32.414.094-19.872.353-35.44 16.338-35.1 35.829-22.364.016-44.728.023-67.091.066-1.801.004-3.601.256-5.694.695-20.572-21.666-38.777-45.251-55.245-70.19-.359-.544-.622-1.15-.948-2.068zM42.069 639.39c-5.753 8.045-11.548 15.634-17.565 23.467-2.931-16.582-5.813-33.384-8.273-50.248-1.147-7.86-1.818-15.826-2.104-23.765-.594-16.442-1.701-32.943-.919-49.339 1.033-21.647 3.09-43.29 5.766-64.802 3.919-31.508 12.12-62.08 22.625-92.345.29 3.082.388 6.41.389 9.737.019 82.28.027 164.56.08 247.296z"/><path fill="#F2F2F1" d="M226.519 910.974c-.804-19.514 14.764-35.499 34.636-35.852 10.645-.19 21.295-.06 32.878-.093 50.636-.035 100.336-.052 150.036-.068 8.81.033 17.648.53 26.425.008 23.139-1.373 40.709 12.276 42.332 35.474-21.307.428-42.594.464-64.452.077-6.7-1.789-12.845-4.335-18.958-4.262-11.317.135-22.617 1.78-33.914 2.9-.556.056-1.013 1.098-1.516 1.681-30.741.05-61.482.116-92.223.147-24.927.025-49.853.01-75.244-.012z"/><path fill="#F2F1F0" d="M725.573 910.943a43.985 43.985 0 0 1 2.41-11.565c5.873.469 11.102 1.48 16.338 1.519 7.932.059 15.95.04 23.786-1.016 15.335-2.065 30.915-3.607 45.766-7.666 22.076-6.033 43.081-15.066 60.137-31.217 11.132 10.323 16.881 23.636 20.848 37.88 1.017 3.652 1.42 7.476 2.07 11.629-56.99.427-113.943.448-171.355.436z"/><path fill="#F3ECE0" d="M394.451 910.906c.038-.65.495-1.692 1.051-1.747 11.297-1.12 22.597-2.766 33.914-2.901 6.113-.073 12.257 2.473 18.493 4.21-17.594.415-35.293.46-53.458.438z"/><path fill="#FBDA81" d="M671.645 92.677c-7.575 5.937-15.527 7.51-23.947 3.186-7.53-3.866-11.602-10.226-11.676-18.834-.078-9.099 5.607-16.94 14.373-20.033 8.146-2.874 18.19-.079 23.45 6.525 5.774 7.252 6.27 17.323 1.164 25.03-.91 1.374-2.06 2.59-3.364 4.126z"/><path fill="#FFFFFE" d="M825.585 754.479c-1.601.312-2.885.414-4.305.528-1.716 16.915-10.076 28.355-27.09 33.116-22.545 4.522-42.089-11.188-42.107-33.87-.085-102.948-.042-205.896-.034-308.844 0-1.15.152-2.298.26-3.834h247.68c0 14.663 0 29.106-.004 44.026-12.665.515-25.326.54-37.987.596-10.441.046-13.02 2.61-13.026 12.922-.01 17.16-.022 34.322.005 51.483.011 7.704 2.795 10.455 10.599 10.486 13.161.05 26.323.047 39.945.15.46 64.055.46 128.025.46 193.032-58.287 0-116.183 0-174.396.209m52.887-32.51h-46.497l.321 6.612h56.17c1.045-6.53.998-6.588-5.014-6.611-1.332-.005-2.663 0-4.98 0M824.69 546.465l1.592-6.132H770.65c-1.028 6.068-.662 6.617 4.745 6.613 16.162-.012 32.324-.085 49.297-.481M793.5 695.958c7.656 0 15.313.01 22.969-.002 6.11-.009 6.521-.601 4.652-6.592h-50.589c-.795 6.163-.503 6.55 4.991 6.584 5.659.034 11.318.01 17.977.01m30.203-106.913-4.345.355v6.311h48.971c1.293-6.42 1.131-6.656-4.725-6.662-12.982-.014-25.964-.004-39.901-.004m19.605-59.039c1.436-.115 2.872-.23 4.321-.348v-6.294h-46.135v6.642h41.814m59.188 125.969h-37.05v5.67h52.021c1.387-4.184.332-6.023-3.982-5.716-3.314.236-6.66.046-10.989.046m-120.957-66.93c-1.997-.001-3.995-.02-5.992.001-5.616.058-6.195.865-4.577 6.982 12.985 0 26.102.012 39.22-.012 2.23-.004 4.839.678 4.801-3.163-.035-3.681-2.272-3.84-4.998-3.827-9.154.047-18.31.018-28.454.018m23.903 56.934c9.573.002 9.636-.052 7.722-6.628h-42.797v6.627h35.075m79.8 33.003c5.737.098 3.443-3.61 3.396-6.961-11.958 0-23.569-.023-35.18.01-5.54.015-6.189 1-4.414 6.953 11.668 0 23.46 0 36.197-.002m80.057-16.955c2.27-.056 4.857.582 4.718-3.245-.13-3.584-2.654-2.772-4.648-2.78-12.656-.05-25.312-.032-37.968-.022-2.127.002-4.447-.473-4.456 3.007-.01 3.466 2.28 3.034 4.426 3.035 12.323.007 24.646.005 37.928.005M885.47 480.841c2.817-4.833 2.712-9.586-.952-13.85-3.064-3.565-7.126-4.862-11.709-3.36-4.665 1.53-7.51 4.71-7.96 9.766-.464 5.23 1.725 9.08 6.312 11.418 4.692 2.392 9.187 1.19 14.31-3.974m-43.95 59.154c-1.994 0-3.989-.006-5.983.001-6.141.022-6.535.58-4.638 6.588h37.766v-6.589H841.52m61.887 56.035c.999 0 1.998-.02 2.995.005 2.41.06 4.746.29 4.591-3.392-.14-3.337-2.13-3.627-4.708-3.615-9.485.043-18.97.06-28.455-.01-2.857-.02-4.872.434-4.815 4.007.062 3.915 2.83 2.958 4.958 2.976 8.153.069 16.308.029 25.434.03M803.238 712.002c5.735.063 3.34-3.673 3.386-6.673h-36.118v6.674h32.732m24.366-132.881v-5.742h-35.179c-.504 3.439-1.283 6.629 3.58 6.591 10.309-.078 20.617-.174 31.599-.85m-7.083 92.898c-1.994 0-3.987-.006-5.98 0-6.129.022-6.507.558-4.646 6.597h33.546c1.05-6.501.99-6.583-4.983-6.595-5.648-.012-11.297-.002-17.937-.002m-22.14-.002c-8.126 0-16.252.054-24.377-.032-2.514-.027-4.055.37-4.047 3.462.007 2.977 1.316 3.642 3.943 3.57 4.806-.13 9.617-.036 14.427-.036h16.25v-6.964h-6.196m122.96-115.976c-8.149.002-16.297.036-24.444-.013-2.746-.017-3.835 1.209-3.877 3.932-.045 2.953 1.704 3.118 3.9 3.082 3.49-.058 6.983-.012 10.475-.012h19.38v-6.624a147.22 147.22 0 0 0-5.435-.365m-26.99 172.056h32.156v-5.7h-32.453c0 1.903 0 3.382.298 5.7M842.47 556.043c-5.317 0-10.634-.01-15.95.002-6.088.014-6.487.59-4.633 6.61h30.56c1.019-6.534.974-6.59-5.004-6.612-1.33-.004-2.659 0-4.973 0m-8.966 82.954h-14.547l.313 6.616h31.385v-6.616h-17.151m52.681-75.977c3.523.07 3.137-2.616 2.651-4.526-.262-1.031-2.135-2.273-3.339-2.337-4.972-.264-9.967-.113-14.953-.114H857.62c-1.433 5.24-.408 7.338 4.696 7.085 7.627-.377 15.287-.098 23.87-.108m-6.565-23.027c-1.163.003-2.497-.353-3.448.098-1.2.568-3.09 2.094-2.915 2.678.462 1.542 1.834 3.949 2.919 3.989 8.745.324 17.508.182 26.516.182v-6.947H879.62M893.44 705.02h-19.087l-.888 6.592h28.165v-6.591h-8.19m-67.944 6.979h13.52l-.304-6.61h-27.366V712h14.15m55.61-99.027c5.195-.324 3.958-3.509 3.248-6.557h-26.93v6.561c7.846 0 15.3 0 23.682-.004m-77.265-.003h23.748v-6.646h-27.463c1.133 2.667 1.968 4.633 3.715 6.646m-19.35-6.973c-2.984 0-5.968-.01-8.952.001-6.072.021-6.473.599-4.606 6.602h25.523c1-6.546.976-6.58-5.004-6.601-1.99-.007-3.98-.001-6.96-.002m-14.44-78.489c.473.777.935 2.224 1.421 2.232 8.401.138 16.805.1 25.537.1l-.326-6.794c-8.041 0-15.519-.167-22.975.161-1.27.056-2.447 2.231-3.658 4.301m21.29 28.533c-5.321 0-10.643-.031-15.964.009-5.46.041-6.166 1.128-4.428 6.55h25.828v-6.195c-1.616-.131-3.05-.248-5.436-.364m45.363 105.992c6.818 0 13.637-.036 20.455.02 2.248.017 4.365-.329 3.639-3.117-.312-1.198-2.15-2.793-3.343-2.836a306.695 306.695 0 0 0-21.944 0c-1.194.043-3.027 1.624-3.348 2.82-.745 2.776 1.34 3.27 4.54 3.113m-33.768-6.006c-.591 1.48-1.425 2.93-1.605 4.457-.045.388 1.976 1.449 3.063 1.472 6.647.142 13.304.215 19.942-.05 1.236-.05 3.12-1.538 3.463-2.722.773-2.664-1.144-3.27-3.506-3.242-6.815.078-13.63.033-21.357.085m-7.866 5.95c.595-1.479 1.523-2.943 1.587-4.444.02-.47-2.274-1.465-3.527-1.494-6.48-.153-12.972-.215-19.445.056-1.242.052-3.132 1.528-3.477 2.71-.776 2.66 1.136 3.277 3.501 3.25 6.816-.076 13.633-.028 21.361-.078m16.459 66.07c4.318-.002 8.653.209 12.942-.141 1.226-.1 2.32-1.827 3.474-2.807-1.094-1.038-2.153-2.927-3.288-2.975a244.936 244.936 0 0 0-20.414.002c-1.11.046-2.14 1.983-3.206 3.046 1.01.956 1.894 2.484 3.058 2.74 2.06.453 4.29.132 7.434.135m-32.969-6.07c-1.66.003-3.441-.367-4.945.118-1.342.433-3.085 1.623-3.405 2.813-.737 2.74 1.308 3.18 3.592 3.157 6.475-.064 12.952-.06 19.427 0 2.262.02 3.834-.288 3.801-3.174-.035-3.072-1.97-2.925-4.034-2.917-4.484.016-8.967.004-14.436.004m-8.141-98.153c.602 1.719 1.14 4.903 1.815 4.932 8.078.345 16.175.223 24.086.223 1.428-4.387.59-6.265-3.81-6.076-7.135.306-14.286.242-22.091.921m56.556 67.73c-.273 2.542.812 3.556 3.41 3.514 6.791-.11 13.59.106 20.37-.176 1.127-.047 2.176-1.948 3.261-2.993-1.155-.974-2.279-2.742-3.471-2.79-6.782-.27-13.581-.203-20.37-.054-1.054.023-2.085 1.052-3.2 2.5m41.012 13.738c-5.481-.091-10.963-.231-16.445-.26-6.134-.032-6.511.542-4.671 6.582H869c-.13-2.182-.236-3.956-1.014-6.322m-35.904-97.587v4.935h20.606v-6.977c-7.005.412-13.671.803-20.606 2.042m10.363-27.735c8.472-.004 8.596-.125 6.71-6.62h-16.82v6.62h10.11m-65.853-6.976c-7.299.02-7.515.267-5.697 6.615h16.778v-6.615h-11.08m40.352-12.49c-.928-1.472-1.72-4.084-2.808-4.213-4.195-.498-8.483-.202-12.722-.202v6.928c2.854 0 5.344.214 7.78-.059 2.585-.29 5.118-1.043 7.75-2.455z"/><path fill="#475058" d="M476.86 65.887c11.212-3.524 11.212-3.524 16.731 6.324 8.13 14.507 8.124 14.595 24.874 15.68 1.736.113 4.04-1.204 5.312-2.572 5.207-5.595 10.116-11.467 15.405-17.548 6.878 3.7 13.647 7.178 20.189 11.043.938.555 1.363 3.117 1.023 4.505-1.66 6.776-3.814 13.433-5.422 20.22-.364 1.538.437 3.596 1.266 5.105.856 1.558 2.858 2.533 3.568 4.118 3.783 8.44 10.4 10.027 18.616 8.184.48-.108.995-.07 1.495-.086 4.613-.157 10.504-2.099 13.483.031 3.038 2.172 3.248 8.337 4.632 12.773 1.032 3.309 1.96 6.65 3.037 10.323-7.111 4.008-14.124 7.778-20.907 11.925-1.478.904-2.717 3.053-3.041 4.816-.75 4.07-.42 8.366-1.39 12.362-.78 3.218.3 4.89 2.508 6.768 5.821 4.954 11.496 10.08 17.509 15.383-3.626 6.711-7.016 13.346-10.842 19.72-.65 1.081-3.34 1.74-4.803 1.394-6.302-1.494-12.525-3.345-18.72-5.253-2.769-.852-4.817-.79-7.012 1.607-2.448 2.671-5.331 5.187-8.497 6.894-3.643 1.966-4.112 4.585-3.733 8.166.666 6.288 1.249 12.6 1.424 18.913.039 1.379-1.505 3.649-2.794 4.076-6.916 2.29-13.983 4.127-21.29 6.204-3.993-7.091-7.757-14.12-11.921-20.903-.903-1.47-3.14-2.625-4.937-2.945-4.24-.754-8.683-.5-12.855-1.467-2.878-.667-4.27.311-5.885 2.218-4.307 5.082-8.793 10.012-13.087 15.105-1.61 1.91-2.955 2.657-5.45 1.218-6.19-3.57-12.56-6.823-19.25-10.415 2.125-7.582 4.07-15.099 6.387-22.498.928-2.961.48-4.954-1.775-7.064-2.168-2.03-4.388-4.297-5.683-6.907-2.56-5.154-6.444-5.652-11.49-4.942-5.59.787-11.275 1.017-16.926 1.148-1.186.028-3.127-1.182-3.493-2.244-2.164-6.282-4.123-12.649-5.75-19.089-.297-1.18.87-3.446 2.013-4.152 5.662-3.491 11.543-6.628 17.348-9.886.871-.488 1.851-.836 2.615-1.453 2.244-1.816 2.729-20.555.571-22.484-5.939-5.308-11.925-10.563-18.067-15.993l12.078-22.152c7.722 2.148 15.108 4.062 22.392 6.303 2.686.826 4.77.928 6.646-1.428.71-.892 1.662-1.741 2.687-2.21 10.009-4.566 10.481-12.735 9.242-22.216-1.641-12.551-1.278-12.598 11.968-16.619m45.145 73.57c-13.228-10.568-31.014-8.588-40.445 4.5-9.103 12.634-5.588 30.391 7.693 38.87 11.434 7.3 26.603 4.817 35.549-5.819 9.074-10.788 8.14-25.922-2.797-37.552z"/><path fill="#FFFFFE" d="M873.86 860.699c-16.906 16.45-37.91 25.483-59.987 31.516-14.85 4.059-30.431 5.6-45.766 7.666-7.837 1.056-15.854 1.075-23.786 1.016-5.236-.04-10.465-1.05-16.092-1.794 3.762-19.467 13.718-35.239 29.54-46.87 19.723-14.496 42.213-18.414 66.168-15.508 19.239 2.334 36.05 9.754 49.923 23.974z"/><path fill="#DAD9D7" d="M444.059 874.496c-49.69.481-99.39.498-149.555.512-.468-11.68-.47-23.357-.51-35.497 49.7-.47 99.438-.477 149.657-.453.453 11.678.425 23.326.408 35.438z"/><path fill="#485058" d="M719.697 172.765c1.9-.306 3.366-.563 5.175-.88v-10.76l37.957 26.128-37.738 25.994v-10.562c-18.378-2.738-38.528 11.4-48.734 33.807-9.625-22.596 7.806-60.354 43.34-63.727zM745.886 269.999a4032.086 4032.086 0 0 1-20.734 5.836v9.97l-37.814-26.063 37.678-25.955v11.259c23.68-1.8 39.86-13.087 48.735-35.003 7.151 17.962-1.138 47.79-27.865 59.956z"/><path fill="#FEFEFD" d="M918.808 290v-31.121l52.79 35.116-52.79 35.448V290z"/><path fill="#F9FCFD" d="M978.464 514.03c-7.474 3.012-9.9 7.759-7.287 13.52 2.79 6.153 8.718 8 15.354 4.281 3.518-1.971 4.256.393 5.644 2.331-6.396 7.235-16.654 7.865-23.671 1.63-6.199-5.506-6.542-16.832-.699-23.023 6.223-6.594 17.572-6.792 24.467-.075l-2.869 3.522c-3.903-.827-7.22-1.53-10.939-2.186z"/><path fill="#F4FBFB" d="M1010.06 515.987v-5.767l5.657-.303v10.828h10.99l.29 5.798-10.755.533-.556 10.587-5.351.235-.512-10.751-10.495-.558v-5.452h10.321c.163-1.852.287-3.27.412-5.15z"/><path fill="#F3FAFB" d="M1034.016 523.065c1.725-.99 3.389-1.753 5.13-2.027 1.742-.274 3.561-.06 5.656-.06l.483-10.767 5.272-.285.526 10.851h10.619l.302 5.556c-3.735.404-8.107-.358-10.2 1.478-1.805 1.582-1.014 6.124-1.423 9.838l-5.048.261-.532-11.056c-2.505 0-4.911-.1-7.305.027-2.486.133-3.848-.678-3.48-3.816z"/><path fill="#4A525B" d="M233.166 183.088c4.077-8.432 6.413-9.346 17.447-6.972v52.113h-8.572v-40.597c-1.45 2.31-2.265 3.403-2.87 4.602-4.798 9.501-9.482 19.06-14.407 28.494-.699 1.338-2.59 2.995-3.79 2.892-1.499-.13-3.43-1.626-4.18-3.055-4.869-9.276-9.461-18.697-14.163-28.06-.553-1.103-1.217-2.149-2.657-3.026v38.825h-8.634v-52.889c3.717 0 7.548-.341 11.263.168 1.488.204 3.225 2.025 3.986 3.543 4.694 9.356 9.14 18.836 14.243 29.473a50910.1 50910.1 0 0 0 12.334-25.511z"/><path fill="#515962" d="M86.295 215.983v-40.245h9.061v22.266h26.182V175.71h8.918v52.486h-8.736v-21.001H95.392v21.178h-9.098v-12.39z"/><path fill="#505861" d="M140.13 179.113c1.003-1.536 1.99-3.567 3.012-3.585 12.471-.218 24.947-.142 37.803-.142v8.505h-15.773v44.5h-8.805v-44.51c-4.266 0-8.042-.207-11.784.06-3.423.246-5.07-.784-4.454-4.828z"/><path fill="#505761" d="M285.01 219.973h13.251v8.337h-32.686v-52.624h8.544v44.287h10.891z"/><path fill="#49515A" d="M374.522 773.246c9.757 4.665 13.628 12.892 10.51 21.672-2.827 7.96-11.516 12.695-19.646 10.706-8.702-2.129-14.27-10.606-12.682-19.305 1.666-9.123 9.717-14.902 18.988-13.621.824.114 1.641.284 2.83.548z"/><path fill="#F1F1F1" d="M160.409 705.977c-.476-7.331-.476-14.645-.476-22.659h36.722v-6.317c-10.358 0-20.49-.355-30.578.139-5.666.277-9.165-1.012-9.936-7.024-.145-1.133-.674-2.216-.573-3.709 3.743-.394 7.058-.17 10.308-.534 1.118-.125 2.074-1.712 3.104-2.63-1.036-1.078-2.005-2.999-3.118-3.086-4.577-.358-9.199-.16-13.804-.166-2.22-3.385-4.44-6.77-6.377-10.486 1.733-.406 3.183-.481 4.734-.561v-5.795h-11.243c-4.287-3.472-8.573-6.943-12.573-10.734 3.187-.32 6.087-.32 9.26-.32l-.303-6.012h-23.384c-11.81-3.483-23.789-4.282-36.324-2.226-.378-88.596-.378-177.237-.378-266.29h587.25v348.412c-29.988 0-59.919 0-90.165-.36 3.665-4.386 7.638-8.422 11.632-12.437 4.654-4.68 4.67-4.68.154-9.198-13.427-13.431-26.86-26.855-40.292-40.281-16.699-16.694-33.458-33.327-50.038-50.138-2.794-2.833-4.652-3.02-7.211.04-1.45 1.735-3.487 2.979-5.538 4.21-4.935-4.762-9.592-9.291-14.314-14.194.342-1.42.593-2.564 1.18-3.496 17.453-27.662 22.595-57.412 15.892-89.446-11.99-57.3-69.666-98.789-127.657-90.709-12.674 1.766-24.917 6.622-37.36 9.614a358.769 358.769 0 0 0-.369-5.581c-4.793 0-9.09.02-13.388-.008-2.252-.015-4.882-.095-4.05 3.146.31 1.213 2.462 2.556 3.924 2.757 4.215.579 8.505.606 12.474 1.046-5.95 3.54-11.61 6.882-17.76 10.175-19.442-.071-38.394-.079-57.346-.127-2.463-.006-4.564-.16-4.573 3.453-.008 3.518 1.921 3.569 4.476 3.56 14.464-.049 28.928-.056 43.392.019 1.73.009 3.456.6 5.01 1.207-2.63 2.756-4.939 5.407-7.616 7.61-1.133.932-3.036 1.263-4.597 1.285-8.416.12-16.834.057-25.244.057v6.756h23.044c-10.611 13.778-17.048 28.56-21.885 44.305-8.569-.013-16.674-.028-24.779-.01-5.734.012-6.167.632-4.33 7.223 9.3 0 18.852 0 28.294.473-.596 9.347-1.084 18.22-2.047 27.085-12.262-.013-24.047-.039-35.832-.003-2.178.006-4.91-.781-4.826 3.087.085 3.945 2.963 2.846 5.028 2.86 12.282.088 24.566.06 36.943.482.286 1.557.625 2.703.637 3.852.028 2.725-.589 5.559-.025 8.148.55 2.524 2.424 4.727 3.4 7.196 3.886 9.828 7.636 19.71 11.488 29.552.195.499.905.776 1.305 1.22 2.975 3.294 5.932 6.605 8.895 9.91l-.88 1.16h-43.46v6.524h5.152c13.977 0 27.956-.111 41.93.119 2.19.036 4.63 1.247 6.469 2.584 2.932 2.132 5.455 4.826 7.86 7.583-10.758.436-21.224.58-31.69.7-2.057.023-4.026-.177-4.063 2.91-.036 2.948 1.656 3.125 3.869 3.112 13.814-.081 27.629-.115 41.773-.078 41.494 24.775 82.99 25.05 124.81 1.788 2.126-1.182 4.282-2.31 6.582-3.177 4.88 5.055 9.602 9.82 14.216 14.917-2.467 3.041-4.827 5.753-7.287 8.58 1.777 2.077 3.374 3.943 4.512 5.859-11.35.049-22.24.049-33.416.049l.322 6.164c12.056 0 23.813.037 35.568-.088.746-.008 1.48-1.272 2.512-1.816 8.17 7.97 16.083 15.768 23.914 23.647 11.564 11.634 23.07 23.326 34.6 34.993-1.328.05-2.657.146-3.985.146-115.69.004-231.38.001-347.545-.018m465.808-291.66c-19.883-26.029-57.502-28.427-79.699-5.08-15.41 16.208-18.85 40.083-8.698 60.213 9.22 18.28 30.79 31.124 54.03 27.764 38.638-5.586 57.805-50.533 34.367-82.897m-445.646 98.68h67.275v-5.787h-74.948l.295 5.788h7.378m10.431-72.503c-.465 4.132 2.059 4.536 5.3 4.521 15.833-.074 31.667-.024 47.5-.054 1.271-.003 2.542-.278 3.793-.424v-6.015c-.86-.224-1.331-.453-1.803-.454-17.166-.033-34.332-.074-51.498.01-1.072.006-2.14 1.01-3.292 2.416m.526-19.489c-1.662 0-3.325-.005-4.987 0-6.106.02-6.517.606-4.504 6.977 15.307 0 30.743-.013 46.18.013 2.585.004 4.94.3 4.878-3.65-.066-4.183-2.835-3.312-5.169-3.32-11.801-.042-23.603-.02-36.398-.02M139.5 506.991c-8.982 0-17.964-.023-26.946.019-2.035.01-4.499-.689-4.582 2.855-.08 3.407 2.111 3.138 4.323 3.137 17.132-.008 34.264-.008 51.396-.002 2.203 0 4.406.291 4.332-3.124-.075-3.543-2.529-2.856-4.57-2.868-7.65-.043-15.302-.017-23.953-.017m30-51.984c-5.157 0-10.315-.027-15.472.011-2.385.018-5.073-.754-5.11 3.393-.034 4 2.398 3.592 4.937 3.588 13.808-.016 27.616.002 41.425-.024 1.438-.003 2.876-.216 4.175-.32 1.445-5.027-.17-6.86-5-6.713-7.978.243-15.97.066-24.955.065m-60.439 119.346-1.472 6.252h50.1v-6.434c-16.178 0-31.961 0-48.628.182m18.44-136.348c-5.48.003-10.963-.114-16.432.116-1.041.044-2.864 1.482-2.845 2.241.03 1.24 1.019 3.129 2.067 3.528 2.097.8 4.506 1.026 6.79 1.05 9.795.101 19.59.075 29.386.023 2.805-.015 5.628-.12 8.407-.47 2.295-.29 5.153-.848 3.913-4.097-.45-1.183-2.852-2.246-4.39-2.285-8.628-.218-17.264-.106-26.897-.106m41-34.005h-37.237v5.743h56.304V404h-19.068m99.136.847c-.752-.275-1.504-.787-2.258-.79-16.647-.05-33.295-.104-49.941.079-1.143.012-2.981 1.714-3.255 2.914-.668 2.923 1.657 2.971 3.787 2.969 15.981-.02 31.964-.086 47.944.05 3.373.029 4.606-1.15 3.723-5.222m-70.133 158.894c8.33 0 16.658.017 24.987-.006 5.588-.015 6.105-.826 4.31-6.473H181.32v6.478h16.182m7.998 27.275c-6.642.005-13.293-.178-19.916.182-1.252.068-2.857 2.128-3.363 3.593-.226.652 1.853 3.04 2.912 3.056 13.611.214 27.228.191 40.841.038 1.01-.012 2.838-1.514 2.814-2.277-.04-1.285-.971-3.011-2.061-3.672-1.303-.79-3.162-.852-4.787-.883-5.145-.1-10.293-.037-16.44-.037m22.028 68.987c-1.829 0-3.667-.113-5.485.03-2.066.164-4.952-1.105-5.048 2.857-.094 3.88 2.637 3.095 4.82 3.1 14.8.036 29.599.035 44.398.004 2.197-.005 4.913.742 4.794-3.129-.12-3.962-3.024-2.806-5.072-2.82-12.471-.083-24.942-.042-38.407-.042M243.5 625.99c-6.982.001-13.965-.026-20.947.021-2.04.014-4.494-.673-4.57 2.866-.075 3.414 2.13 3.123 4.331 3.123 14.796-.005 29.592-.006 44.389.003 2.21 0 4.399.271 4.318-3.136-.083-3.542-2.54-2.845-4.576-2.858-7.315-.046-14.63-.018-22.945-.019m-78-78.98c7.481 0 14.962-.005 22.444.002 2.05.002 4.027.189 4.067-2.896.038-2.915-1.604-3.148-3.84-3.143a9437.79 9437.79 0 0 1-45.386 0c-2.25-.006-3.865.255-3.816 3.162.051 3.097 2.049 2.875 4.085 2.874 7.149-.004 14.297 0 22.446 0m-38-57.785h-19.367v6.318h44.462v-6.318H127.5m73.242 51.613c-5.219-.682-4.688 2.44-3.917 5.964h51.311l-.278-5.961c-15.646 0-30.906 0-47.116-.003m-43.779-153.565c-14.808-.09-29.616-.196-44.424-.253-2.048-.008-4.509-.664-4.56 2.879-.058 3.89 2.67 3.083 4.847 3.09 13.485.039 26.97.03 40.455.004 1.438-.003 2.876-.217 4.731-.367-.15-1.884-.266-3.329-1.049-5.353m148.536 272.73h-29.665l.334 5.835h46.555v-5.835H305.5m-128.48-65.439c.403-2.778-1.083-3.317-3.502-3.27-5.97.116-11.942.04-17.914.042H138.33v6.56c12.313 0 24.377.044 36.438-.105.759-.01 1.5-1.52 2.252-3.227m46.09-15.198c1.567.543 3.123 1.515 4.702 1.554 6.993.171 13.992.074 20.989.074h12.794v-6.954c-12.022 0-23.65-.011-35.278.008-3.04.005-3.421 2.062-3.207 5.318m-84.484-100.37c9.15 0 18.3-.056 27.45.035 2.58.026 4.007-.498 4.006-3.535 0-3.06-1.478-3.532-4.034-3.51-9.648.084-19.298-.004-28.946.047-5.132.028-5.686.93-4.181 6.963h5.705m230.51-91.982c-12.157-.004-24.315-.098-36.468.103-1.478.025-3.967 1.438-4.184 2.558-.516 2.66 1.492 3.49 4.103 3.445 7.325-.126 14.654-.046 21.981-.046h18.26c-1.263-2.727-2.027-4.374-3.692-6.06m-261.273 70.574.359 3.995h35.984v-6.416c-11.757 0-23.207-.02-34.655.064-.552.004-1.096.935-1.688 2.357m2.852 99.381c-5.51.224-1.853 3.988-2.858 6.395h36.382v-6.396l-33.524.001m92.44-26.98 2.8-3.582c-1.163-.803-2.315-2.288-3.49-2.305-11.635-.176-23.275-.127-34.914-.093-2.04.006-4.5-.677-4.566 2.865-.072 3.88 2.633 3.1 4.82 3.107 11.472.038 22.944.017 35.35.008M346.1 649.13l2.342-5.964h-43.401v5.996c13.573 0 26.854 0 41.059-.032m-63.493-17.13h35.979v-5.773H276.33V632h6.278M178.93 472.171l-3.112 6.785c12.305 0 22.913-.039 33.52.027 2.66.017 4.623-.357 4.503-3.7-.115-3.202-2.261-3.172-4.528-3.168-9.822.014-19.643.011-30.383.056m-63.345-44.187c8.14-.001 16.28-.052 24.418.026 2.492.024 4.092-.328 4.087-3.446-.004-2.973-1.313-3.651-3.946-3.59-5.313.122-10.63.033-15.946.032h-15.818v6.977h7.205M177.66 632c10.315 0 20.629.006 30.943-.006 2.13-.002 4.45.456 4.436-3.017-.015-3.487-2.368-2.975-4.477-2.978-10.647-.016-21.294-.035-31.94.017-1.995.01-4.529-.792-4.657 2.775-.138 3.843 2.503 3.127 5.695 3.21m24.353 49.434c.963.573 1.9 1.578 2.895 1.641 3.302.212 6.626.087 9.942.087h27.741v-6.16c-12.87 0-25.442.069-38.013-.05-2.945-.028-2.613 1.724-2.565 4.482m-1.51-32.354h24.554l-.4-6.156c-12.359 0-24.122.147-35.878-.072-4.622-.087-5.493 1.73-3.94 6.228h15.663m5.88 17.048h5.381v-5.722h-37.835l.317 5.722h32.137m-33.745-92.11c-2.607.302-5.294.33-7.776 1.058-.872.256-1.685 2.232-1.684 3.421.001.823 1.434 2.345 2.247 2.358 10.044.164 20.093.107 29.951.107 1.507-5.259-.012-7.221-4.864-7.004-5.624.253-11.269.06-17.874.06m-43.142 40.98c3.49 0 6.98-.006 10.47 0 2.037.004 4.032.217 4.08-2.876.045-2.914-1.592-3.158-3.83-3.148-9.472.045-18.944.045-28.415.002-2.235-.01-3.877.226-3.832 3.143.048 3.091 2.037 2.884 4.077 2.881 5.484-.007 10.968-.002 17.45-.002M268.66 642.99c-2.271.412-5.864-1.423-5.629 3.268.216 4.297 3.57 2.636 5.649 2.677 8.807.173 17.619.054 26.429.086 2.163.008 3.933-.065 3.923-3.05-.01-3.025-1.864-2.994-3.981-2.988-8.478.023-16.955.008-26.391.007m-20.027 38.912c.401.281.8.804 1.205.809 10.26.121 20.523.266 30.78.112.804-.012 2.323-2.306 2.151-3.306-.17-.99-2.045-2.376-3.198-2.4-9.273-.197-18.554-.026-27.83-.162-3.203-.047-4.226 1.203-3.108 4.947M361.56 649.01c7.477-.004 14.957.103 22.426-.142 1.02-.033 2.517-1.699 2.788-2.846.185-.784-1.358-2.845-2.158-2.861-9.799-.2-19.604-.198-29.402.01-.759.017-1.953 1.926-2.058 3.04-.08.847 1.102 2.404 1.98 2.625 1.722.434 3.623.157 6.424.174m-67.174-256.001c.664 0 1.332.043 1.992-.009 1.996-.156 4.516.767 4.636-2.798.13-3.84-2.504-3.181-4.74-3.189-8.472-.027-16.944.013-25.416-.026-2.186-.01-3.91.116-3.887 3.078.024 3.05 1.925 2.953 4.013 2.948 7.476-.018 14.951-.005 23.402-.004m-120.942 215.87h-24.01v5.847h32.213v-5.847h-8.203m21.483-216.14c1.179-2.257 2.634-5.361-1.276-5.542-10.052-.465-20.14-.156-29.972-.156-1.546 4.646-.251 6.142 3.943 6.031 8.804-.233 17.618-.102 27.305-.334m-46.457 131.094h-22.833v5.803h32.548l-.305-5.803h-9.41m69.034-61.948h14.233v-6.332h-27.324v6.332h13.091M207.48 614.998c2.491 0 4.983-.005 7.474 0 2.032.005 4.034.23 4.08-2.87.045-2.906-1.58-3.167-3.821-3.153-8.139.048-16.278.048-24.417 0-2.239-.014-3.869.237-3.829 3.146.043 3.095 2.037 2.88 4.074 2.878 5.149-.006 10.298-.002 16.439-.001m-35.97-119.053h14.45l-.295-6.242h-26.327v6.242h12.171M151.13 427.6h25.046l-.291-6.285h-27.171c.598 2.311 1.084 4.186 2.416 6.285m103.049 181.354h-28.542v5.784h29.199c0-1.881 0-3.498-.657-5.784M191.37 495.149c8.236.282 16.473.56 24.709.85 2.157.077 3.947-.033 3.939-3.027-.008-3.019-1.85-3.008-3.978-3-6.986.029-13.976.148-20.957-.05-3.382-.095-4.596 1.166-3.713 5.227m188.47-102.146c7.654 0 15.313.127 22.959-.145 1.1-.04 2.131-2.006 3.194-3.08-1.046-.923-2.068-2.613-3.142-2.647-7.48-.234-14.974-.186-22.46-.056-1.095.019-3.141 1.085-3.093 1.444.205 1.525 1.033 2.966 2.541 4.484M253.443 455.01c-4.146.003-8.315-.227-12.424.165-1.1.105-2.634 2.016-2.828 3.274-.16 1.03 1.336 3.313 2.163 3.345 7.056.272 14.127.155 21.272.155v-6.939h-8.183m-5.97 193.996c2.324-.001 4.716.328 6.947-.13 1.318-.27 2.382-1.783 3.56-2.737-1.086-1.045-2.139-2.95-3.264-2.993a277.54 277.54 0 0 0-21.403-.002c-1.133.043-2.194 1.932-3.288 2.968 1.169.963 2.28 2.656 3.518 2.755 4.288.346 8.622.137 13.93.14m-94.699-85.994c6.482 0 12.964-.035 19.445.021 2.249.02 4.365-.34 3.625-3.121-.315-1.186-2.181-2.728-3.397-2.778-6.637-.271-13.295-.246-19.935-.02-1.182.04-2.316 1.508-3.472 2.316.936 1.19 1.872 2.382 3.734 3.582m6.638 68.988c1.327-.002 2.798.358 3.943-.1 1.35-.538 3.137-1.585 3.465-2.764.76-2.734-1.282-3.184-3.567-3.16-6.302.064-12.612-.132-18.902.16-1.148.052-2.213 1.914-3.316 2.94 1.157.974 2.26 2.697 3.481 2.786 4.62.333 9.279.137 14.896.138m-31.058-91.059h-20.467l.273 5.725h24.72c.766-3.496.96-6.224-4.526-5.725m37.13-96.947 20.085 1.013v-6.566h-20.367c0 1.8 0 3.268.283 5.553M249.508 387c-2.654.002-5.36-.303-7.941.134-1.297.219-2.366 1.785-3.538 2.742 1.089 1.042 2.134 2.924 3.275 2.984 5.79.308 11.614.308 17.404.001 1.14-.06 2.182-1.946 3.27-2.99-1.175-.955-2.246-2.52-3.545-2.739-2.58-.435-5.287-.13-8.925-.132M178.05 648.945c.591-1.475 1.411-2.92 1.605-4.444.046-.362-1.998-1.399-3.099-1.428-5.643-.149-11.302-.233-16.934.057-1.249.064-3.139 1.53-3.472 2.707-.77 2.718 1.246 3.216 3.552 3.188 5.813-.071 11.627-.028 18.348-.08m-67.325-57.185c-4.586.526-2.496 3.451-2.469 5.788h23.824l-.282-5.794c-6.9 0-13.506 0-21.073.006m163.256-181.79h21.823v-5.557h-22.427c0 1.894 0 3.387.604 5.556m-164.16 68.946h16.942v-6.34H107.49c.527 2.338.967 4.291 2.333 6.34m105.126 95.375h-14.247v6.402h18.81c-1.57-2.714-2.634-4.556-4.563-6.402m-12.923-187.296-2.116 5.826h19.683v-5.852c-5.774 0-11.22 0-17.567.026m-94.006 20.454c.177.621.33 1.778.535 1.787 5.409.25 10.823.447 16.234.404.402-.003 1.149-1.905 1.077-2.875-.067-.914-.977-2.504-1.563-2.525-4.97-.182-9.951-.137-14.921.053-.483.019-.91 1.478-1.362 3.156m209.37-20.476h-11.32v5.876h17.449v-5.876h-6.129m88.845 262.034c2.257.148 4.415-.37 3.588-3.1-.378-1.246-2.457-2.621-3.89-2.777-3.612-.392-7.317-.343-10.937.012-1.078.106-2.758 1.796-2.78 2.791-.023 1.001 1.592 2.809 2.635 2.923 3.448.377 6.962.148 11.384.15m-173.851-86.853c4.23.286 8.464.766 12.69.71.976-.012 2.677-1.86 2.677-2.863 0-.996-1.626-2.703-2.71-2.852-2.932-.401-5.968.031-8.94-.188-3.375-.248-4.59 1.136-3.717 5.193M192.078 406.58c.616 1.158 1.154 3.258 1.862 3.317 3.945.329 7.934.25 11.898.081.668-.028 1.753-1.117 1.828-1.805.131-1.205-.42-3.574-.6-3.566-4.98.22-9.947.68-14.988 1.973M108.37 529.144c3.402.275 6.808.75 10.204.68.815-.018 2.217-1.846 2.213-2.836-.005-.991-1.293-2.619-2.265-2.83-2.063-.446-4.3 0-6.44-.2-3.382-.316-4.579 1.14-3.712 5.186m116.735-141.402v4.97h7.76v-5.546c-2.528 0-4.793 0-7.76.576z"/><path fill="#FCDA81" d="M512.253 705.99c-11.844-11.808-23.35-23.5-34.914-35.134-7.831-7.88-15.744-15.677-24.073-23.942a1550.87 1550.87 0 0 0-4.368-4.064l-4.971-5.81c2.46-2.826 4.82-5.538 7.603-8.649 6.717-6.506 13.083-12.54 19.276-18.746 3.718-3.726 7.165-7.722 10.734-11.596 1.773-1.465 3.81-2.71 5.26-4.444 2.559-3.06 4.417-2.873 7.211-.04 16.58 16.81 33.34 33.444 50.038 50.138 13.431 13.426 26.865 26.85 40.292 40.281 4.516 4.518 4.5 4.519-.154 9.198a886.53 886.53 0 0 0-12.101 12.37c-8.593 8.543-17.053 16.772-25.457 25.059-1.416 1.396-2.587 3.041-4.293 5.074-10.285-10.21-20.027-19.881-30.083-29.694z"/><path fill="#F3FAFB" d="M80.898 699.288c-.045 3.29.317 6.191-.222 8.914-.273 1.374-2.18 2.424-3.347 3.62-1.055-1.146-2.996-2.27-3.026-3.443-.245-9.641-.244-19.294.013-28.935.03-1.117 2.082-3.03 3.196-3.029 1.11 0 3.05 1.858 3.175 3.054.407 3.897.153 7.864.153 12.37 5.236 0 9.858.19 14.44-.158.943-.072 2.305-2.079 2.477-3.331.382-2.776-.145-5.68.258-8.45.194-1.332 1.658-2.479 2.546-3.71 1.09 1.28 3.047 2.51 3.122 3.846.342 6.135.158 12.3.165 18.454.003 2.828.039 5.656.007 8.483-.055 5.041-.824 5.54-6.242 3.889 0-.557.051-1.198-.008-1.828-.364-3.842.16-10.519-1.306-10.99-4.465-1.44-9.701-.503-14.636-.409-.25.005-.487.777-.765 1.653z"/><path fill="#F4FBFB" d="M48.936 676.157c3.096.266 5.75.403 8.36.82 7.403 1.187 10.892 5.423 10.534 12.598-.335 6.718-4.337 10.722-11.442 11.407-.99.095-1.992.055-2.989.078-6.877.159-6.752.17-7.407 7.14-.12 1.278-1.719 2.417-2.635 3.62-1.066-1.305-3.013-2.583-3.056-3.92-.277-8.8.033-17.617-.222-26.417-.12-4.136 1.258-5.893 5.406-5.344.98.13 1.992.019 3.451.018m-2.002 6.11c-.257 3.736-.674 7.472-.645 11.205.006.804 1.537 2.133 2.508 2.28 2.1.32 4.315.218 6.44-.05 4.348-.552 6.22-3.066 5.983-7.541-.228-4.3-2.841-5.727-6.454-6.086-2.301-.23-4.642-.06-7.832.192z"/><path fill="#F7FCFC" d="M139.327 682.912c3.065 12.238-1.164 17.873-13.191 18.149-6.864.157-6.856.157-7.049 7.125-.027.974-.182 1.944-.32 3.335l-5.294.308v-35.835c8.975 1.279 18.818-2.746 25.854 6.918m-5.329 8.145c.282-8.27-4.927-11.222-15.66-7.892.864 4.1.523 9.414 3.005 12.306 2.453 2.858 9.818-.07 12.655-4.414z"/><path fill="#4C545D" d="M112.405 626.327c7.374-.244 14.982-.244 23.15-.244l.303 6.012c-3.172 0-6.072 0-9.435.04-4.903-1.827-9.344-3.695-14.018-5.808z"/><path fill="#DAD9D8" d="M152.164 660.31c4.5-.313 9.12-.511 13.698-.153 1.113.087 2.082 2.008 3.118 3.085-1.03.92-1.986 2.506-3.104 2.631-3.25.363-6.565.14-10.309.16-1.402-1.793-2.35-3.599-3.403-5.723z"/><path fill="#505761" d="M139.344 643.409c3.444-.26 7.06-.26 11.071-.26v5.795c-1.551.08-3 .155-4.875.27-2.291-1.822-4.157-3.683-6.196-5.805z"/><path fill="#DCDCDA" d="M878.965 721.969c1.824 0 3.155-.004 4.487 0 6.012.024 6.059.083 5.015 6.612h-56.171l-.321-6.612h46.99z"/><path fill="#DCDCDB" d="M824.286 546.64c-16.568.222-32.73.295-48.892.307-5.407.004-5.773-.545-4.745-6.613h55.634c-.607 2.337-1.1 4.234-1.997 6.306z"/><path fill="#DCDCDA" d="M793 695.958c-6.159 0-11.818.024-17.477-.01-5.494-.034-5.786-.42-4.99-6.584 16.824 0 33.706 0 50.59.003 1.867 5.988 1.457 6.58-4.654 6.59-7.656.011-15.313.002-23.469.001zM824.18 589.045c13.46 0 26.442-.01 39.424.004 5.856.006 6.018.242 4.725 6.662h-48.971v-6.31c1.47-.12 2.907-.238 4.823-.356z"/><path fill="#DCDCDB" d="M842.829 530.006h-41.335v-6.642h46.135v6.294c-1.45.117-2.885.233-4.8.348z"/><path fill="#DAD9D8" d="M902.996 655.975c3.83 0 7.175.19 10.489-.046 4.314-.307 5.369 1.532 3.982 5.716h-52.021v-5.67h37.55z"/><path fill="#DCDCDA" d="M782.034 589.044c9.65 0 18.805.029 27.959-.018 2.726-.014 4.963.146 4.998 3.827.038 3.84-2.57 3.159-4.802 3.163-13.117.024-26.234.012-39.219.012-1.618-6.117-1.039-6.924 4.577-6.982 1.997-.02 3.995-.002 6.487-.002z"/><path fill="#DCDBDA" d="M804.95 645.978h-34.583v-6.628h42.797c1.914 6.576 1.851 6.63-8.215 6.628z"/><path fill="#DCDCDB" d="M884.77 678.981h-35.726c-1.775-5.952-1.127-6.937 4.414-6.952 11.611-.033 23.222-.01 35.18-.01.047 3.351 2.341 7.059-3.869 6.962z"/><path fill="#DAD9D8" d="M964.819 662.025c-12.803 0-25.126.002-37.449-.005-2.145 0-4.435.431-4.426-3.035.01-3.48 2.329-3.005 4.456-3.007 12.656-.01 25.312-.027 37.968.022 1.994.008 4.519-.804 4.648 2.78.139 3.827-2.449 3.19-5.197 3.245z"/><path fill="#4C545D" d="M885.251 481.145c-4.904 4.86-9.399 6.062-14.09 3.67-4.588-2.338-6.777-6.187-6.312-11.418.449-5.056 3.294-8.236 7.96-9.766 4.582-1.502 8.644-.205 11.708 3.36 3.664 4.264 3.77 9.017.734 14.154m-14.255-2.617c4.043 3.473 7.269 3.433 10.121-.122 2.59-3.228 2.201-7.113-1.642-9.195-1.807-.98-4.972-1.076-6.757-.13-3.472 1.84-4.285 5.193-1.722 9.447z"/><path fill="#DCDCDA" d="M842.017 539.995h26.648v6.589h-37.766c-1.897-6.008-1.503-6.566 4.638-6.588 1.994-.007 3.989 0 6.48 0zM902.92 596.03c-8.64 0-16.794.04-24.947-.029-2.127-.018-4.896.94-4.958-2.976-.057-3.573 1.958-4.028 4.815-4.007 9.485.07 18.97.053 28.455.01 2.577-.012 4.568.278 4.708 3.615.155 3.682-2.18 3.453-4.59 3.392-.998-.025-1.997-.005-3.482-.005z"/><path fill="#DCDBDA" d="M802.767 712.004h-32.26v-6.674h36.117c-.046 3 2.35 6.736-3.857 6.674zM827.267 579.416c-10.645.382-20.953.478-31.262.556-4.863.038-4.084-3.152-3.58-6.591h35.179c0 1.946 0 3.844-.337 6.035z"/><path fill="#DCDCDB" d="M821.017 672.02c6.144 0 11.793-.01 17.44.002 5.975.012 6.034.094 4.984 6.595h-33.546c-1.861-6.039-1.483-6.575 4.645-6.596 1.994-.007 3.987-.001 6.477-.001zM798.86 672.018h5.718v6.964h-16.251c-4.81 0-9.621-.094-14.427.036-2.627.072-3.936-.593-3.943-3.57-.008-3.093 1.533-3.489 4.047-3.462 8.125.086 16.251.032 24.856.032zM921.815 556.042c1.91.117 3.344.234 4.96.365v6.624h-19.38c-3.492 0-6.984-.046-10.475.012-2.196.036-3.945-.13-3.9-3.082.042-2.723 1.131-3.949 3.877-3.932 8.147.05 16.295.015 24.918.013z"/><path fill="#DCDBDA" d="M894.202 727.679c-.15-1.899-.15-3.378-.15-5.282h32.454v5.701c-10.798 0-21.477 0-32.304-.42z"/><path fill="#DCDCDB" d="M842.963 556.043c1.821 0 3.15-.004 4.48 0 5.978.022 6.023.078 5.003 6.612h-30.559c-1.854-6.02-1.455-6.596 4.632-6.61 5.317-.012 10.634-.002 16.444-.002z"/><path fill="#DBDAD9" d="M834.003 638.997h16.652v6.616H819.27l-.313-6.616h15.046z"/><path fill="#DCDCDB" d="M885.717 563.025c-8.114.005-15.774-.274-23.401.103-5.104.253-6.129-1.846-4.696-7.085h12.924c4.986 0 9.98-.15 14.953.114 1.204.064 3.077 1.306 3.34 2.337.485 1.91.87 4.596-3.12 4.531zM880.108 539.993h22.585v6.947c-9.008 0-17.77.142-26.516-.182-1.085-.04-2.457-2.447-2.92-3.99-.174-.583 1.716-2.11 2.916-2.677.951-.45 2.285-.095 3.935-.098z"/><path fill="#DBDAD9" d="M893.927 705.02h7.703v6.59h-28.165c.28-2.07.55-4.074.888-6.59h19.574z"/><path fill="#DCDBDA" d="M825 711.999h-13.654v-6.61h27.366l.304 6.61H825z"/><path fill="#DCDCDA" d="M880.64 612.974c-7.917.002-15.37.002-23.216.002v-6.56h26.93c.71 3.047 1.947 6.232-3.713 6.558zM803.385 612.946c-1.29-1.99-2.126-3.956-3.26-6.623h27.464v6.646c-7.947 0-15.847 0-24.204-.023zM784.987 605.996c2.486 0 4.475-.005 6.465.002 5.98.022 6.005.055 5.004 6.6h-25.523c-1.867-6.002-1.466-6.58 4.606-6.6 2.984-.011 5.968-.002 9.448-.002z"/><path fill="#DCDCDB" d="M770.047 527.07c1.215-1.633 2.392-3.808 3.662-3.864 7.456-.328 14.934-.16 22.975-.16l.326 6.793c-8.732 0-17.136.038-25.537-.1-.486-.008-.948-1.455-1.426-2.669zM791.816 556.04c1.91.116 3.345.233 4.96.364v6.194H770.95c-1.738-5.42-1.033-6.508 4.428-6.55 5.321-.04 10.643-.008 16.44-.008z"/><path fill="#DADAD8" d="M836.235 662.031c-2.732.158-4.817-.336-4.072-3.112.321-1.196 2.154-2.777 3.348-2.82a306.695 306.695 0 0 1 21.944 0c1.193.043 3.03 1.638 3.343 2.836.726 2.788-1.39 3.134-3.639 3.116-6.818-.055-13.637-.02-20.924-.02zM803.39 656.001c7.271-.027 14.087.018 20.902-.06 2.362-.027 4.279.578 3.506 3.242-.344 1.184-2.227 2.672-3.463 2.721-6.638.266-13.295.193-19.942.051-1.087-.023-3.108-1.084-3.063-1.472.18-1.527 1.014-2.978 2.06-4.482zM794.613 662c-7.272.026-14.089-.022-20.905.055-2.365.026-4.277-.591-3.5-3.25.344-1.183 2.234-2.659 3.476-2.71 6.473-.272 12.965-.21 19.445-.057 1.253.03 3.547 1.024 3.527 1.494-.064 1.501-.992 2.965-2.043 4.468zM811.036 728.046c-2.652-.003-4.882.318-6.942-.135-1.164-.256-2.048-1.784-3.058-2.74 1.066-1.063 2.096-3 3.206-3.046a244.936 244.936 0 0 1 20.414-.002c1.135.048 2.194 1.937 3.288 2.975-1.154.98-2.248 2.707-3.474 2.807-4.29.35-8.624.139-13.434.14zM779.052 721.976c4.976 0 9.46.013 13.943-.003 2.064-.008 4-.155 4.034 2.917.033 2.886-1.539 3.195-3.801 3.174-6.475-.06-12.952-.064-19.427 0-2.284.022-4.33-.417-3.592-3.157.32-1.19 2.063-2.38 3.405-2.813 1.504-.485 3.285-.115 5.438-.118zM770.748 623.53c7.475-.385 14.626-.321 21.762-.627 4.398-.189 5.237 1.689 3.809 6.076-7.91 0-16.008.122-24.086-.223-.674-.03-1.213-3.213-1.485-5.225z"/><path fill="#D9D9D8" d="M827.01 691.113c1.079-1.006 2.11-2.035 3.164-2.058 6.789-.149 13.588-.216 20.37.054 1.192.048 2.316 1.816 3.471 2.79-1.085 1.045-2.134 2.946-3.26 2.993-6.78.282-13.58.065-20.37.176-2.6.042-3.684-.972-3.375-3.955z"/><path fill="#DCDBDA" d="M868.322 705.588c.442 2.07.548 3.845.678 6.027h-22.13c-1.84-6.04-1.463-6.614 4.67-6.582 5.483.029 10.965.169 16.782.555zM832.216 607.282c6.801-.815 13.467-1.207 20.472-1.618v6.977h-20.606c0-1.758 0-3.347.134-5.359zM841.964 579.97h-9.63v-6.62h16.821c1.886 6.496 1.762 6.617-7.19 6.62z"/><path fill="#DCDCDA" d="M777.075 572.995h10.598v6.615h-16.778c-1.818-6.348-1.602-6.595 6.18-6.615z"/><path fill="#DCDCDB" d="M816.907 560.935c-2.594.981-5.127 1.734-7.712 2.024-2.436.273-4.926.059-7.78.059v-6.928c4.239 0 8.527-.296 12.722.202 1.087.129 1.88 2.74 2.77 4.643z"/><path fill="#FBD97F" d="M522.26 139.713c10.68 11.373 11.615 26.507 2.54 37.295-8.945 10.636-24.114 13.119-35.548 5.82-13.281-8.48-16.796-26.237-7.693-38.87 9.431-13.09 27.217-15.069 40.7-4.245z"/><path fill="#485159" d="M252.11 524.024c.486-8.873.974-17.747 1.65-27.36.525-2.963.862-5.186 1.198-7.409 4.374-15.755 10.811-30.538 21.422-44.316h-23.044v-6.756c8.41 0 16.828.063 25.244-.057 1.561-.022 3.464-.353 4.597-1.285 2.677-2.203 4.986-4.854 7.931-7.72 3.397-2.916 6.306-5.434 9.215-7.952 5.66-3.343 11.32-6.685 17.511-10.243.846-.348 1.06-.578 1.17-.902 12.442-3.432 24.685-8.288 37.359-10.054 57.99-8.08 115.667 33.409 127.657 90.71 6.703 32.033 1.56 61.783-15.891 89.445-.588.932-.839 2.077-1.529 3.538-5.33 5.837-10.223 11.413-15.471 16.632-4.555 4.53-9.51 8.657-14.29 12.962-2.141 1.153-4.297 2.282-6.423 3.464-41.82 23.262-83.316 22.987-125.004-2.07-3.484-2.467-6.444-4.565-9.404-6.663-2.696-2.456-5.22-5.15-8.151-7.282-1.838-1.337-4.279-2.548-6.469-2.584-13.974-.23-27.953-.118-41.93-.119h-5.152v-6.524h43.46l.88-1.16c-2.963-3.305-5.92-6.616-8.895-9.91-.4-.444-1.11-.721-1.305-1.22-3.852-9.842-7.602-19.724-11.488-29.552-.976-2.469-2.85-4.672-3.4-7.196-.564-2.59.053-5.423.025-8.148-.012-1.15-.351-2.295-.594-4.238-.328-2.54-.604-4.285-.88-6.03m42.127 42.107c1.712 2.04 3.425 4.08 5.012 6.773 3.258 3.405 6.516 6.811 10.199 10.708 2.33 1.863 4.574 3.845 7.002 5.57 17.492 12.43 36.828 18.093 58.405 16.88 22.04-1.238 41.126-9.3 56.734-24.486 20.428-19.875 30.387-44.044 27.512-73.088-1.332-13.465-4.88-25.986-11.71-37.6-20.055-34.104-59.05-51.464-97.513-42.76-17.019 3.852-32.025 11.678-44.55 25.026-3.095 3.564-6.19 7.13-9.575 11.327-3.932 7.578-7.864 15.155-12.256 23.253-.836 3.438-1.67 6.876-2.483 11.139-.667 7.725-1.333 15.45-1.9 23.985.64 3.13 1.28 6.26 1.961 10.131.31 1.915.621 3.83.923 6.558.484 1.714.988 3.422 1.445 5.143.645 2.425 1.363 4.75 4.134 5.015.143 1.77.285 3.54.458 6.028 1.994 3.267 3.988 6.534 6.202 10.398z"/><path fill="#F37D5C" d="M626.429 414.607c23.226 32.074 4.06 77.021-34.578 82.607-23.241 3.36-44.812-9.485-54.03-27.764-10.153-20.13-6.713-44.005 8.697-60.213 22.197-23.347 59.816-20.949 79.91 5.37m-17.569 21.1-11.05-5.085c-1.64 4.224-.056 5.95 3.039 7.216 4.466 1.827 8.807 3.96 14.178 6.406-5.607 2.61-9.881 4.854-14.35 6.6-3.58 1.396-4.28 3.518-2.886 7.229 6.816-3.118 13.502-6.004 19.993-9.279 1.4-.706 2.971-2.86 2.888-4.254-.098-1.64-1.587-3.655-3.054-4.653-2.44-1.66-5.344-2.639-8.758-4.18m-56.891 13.67 18.98 8.745c1.628-3.738.555-5.697-2.653-7.065-4.674-1.995-9.226-4.276-14.66-6.825 5.452-2.48 10.041-4.75 14.774-6.662 3.392-1.37 4.045-3.372 2.482-6.99-6.743 3.096-13.274 5.93-19.618 9.133-1.433.723-2.673 2.58-3.196 4.18-.85 2.59.448 4.469 3.89 5.485m31.708 12.786 7.855-37.122c-3.916-1.407-5.07-.171-5.64 2.77-1.362 7.012-3.046 13.962-4.546 20.95-1.244 5.795-2.412 11.607-3.6 17.346 4.085 1.888 5.304.027 5.931-3.944z"/><path fill="#27333C" d="M436.998 613.544c4.62-4.592 9.576-8.719 14.13-13.249 5.249-5.22 10.143-10.795 15.538-16.258 5.004 4.487 9.66 9.016 14.596 13.779-3.29 4.107-6.738 8.103-10.456 11.83-6.193 6.206-12.56 12.24-19.169 18.415-5.037-4.696-9.759-9.462-14.639-14.517z"/><path fill="#464F58" d="M180.081 512.998h-6.888l-.295-5.788h74.948v5.788H180.08z"/><path fill="#DCDBDA" d="M299.834 421.119c-2.42 2.568-5.329 5.086-8.553 7.715-2.042-.21-3.769-.801-5.498-.81a5067.923 5067.923 0 0 0-43.392-.019c-2.555.009-4.484-.042-4.476-3.56.01-3.612 2.11-3.459 4.573-3.453 18.952.048 37.904.056 57.346.127z"/><path fill="#DCDCDA" d="M191.044 440.062c1.11-.973 2.178-1.977 3.25-1.983 17.166-.084 34.332-.043 51.498-.01.472 0 .943.23 1.803.454v6.015c-1.251.146-2.522.421-3.793.424-15.833.03-31.667-.02-47.5.054-3.241.015-5.765-.39-5.258-4.954zM192.024 421.006c12.299 0 24.1-.022 35.902.02 2.334.008 5.103-.863 5.169 3.32.062 3.95-2.293 3.654-4.879 3.65-15.436-.026-30.872-.013-46.18-.013-2.012-6.371-1.6-6.957 4.505-6.977 1.662-.005 3.325 0 5.483 0z"/><path fill="#D9D9D8" d="M140 506.99c8.151 0 15.803-.025 23.454.018 2.04.012 4.494-.675 4.57 2.868.073 3.415-2.13 3.125-4.333 3.124-17.132-.006-34.264-.006-51.396.002-2.212 0-4.404.27-4.323-3.137.083-3.544 2.547-2.846 4.582-2.855 8.982-.042 17.964-.019 27.446-.02z"/><path fill="#DCDBDA" d="M170 455.007c8.486 0 16.477.178 24.455-.065 4.83-.147 6.445 1.686 5 6.712-1.3.105-2.737.318-4.175.321-13.809.026-27.617.008-41.425.024-2.54.004-4.971.413-4.936-3.588.036-4.147 2.724-3.375 5.11-3.393 5.156-.038 10.314-.01 15.971-.01z"/><path fill="#88D2DF" d="M109.503 574.262c16.225-.09 32.008-.09 48.187-.09v6.433h-50.1c.563-2.395 1.017-4.323 1.913-6.343z"/><path fill="#DCDCDA" d="M128 438.005c9.133 0 17.77-.112 26.397.106 1.538.039 3.94 1.102 4.39 2.285 1.24 3.25-1.618 3.807-3.913 4.097-2.779.35-5.602.455-8.407.47-9.795.052-19.591.078-29.385-.023-2.285-.024-4.694-.25-6.791-1.05-1.048-.4-2.036-2.288-2.067-3.528-.019-.759 1.804-2.197 2.845-2.241 5.469-.23 10.953-.113 16.931-.116z"/><path fill="#474F59" d="M169 404h18.567v5.743h-56.304V404H169z"/><path fill="#DAD9D8" d="M267.78 405.266c.738 3.652-.495 4.832-3.868 4.803-15.98-.136-31.963-.07-47.944-.05-2.13.002-4.455-.046-3.787-2.969.274-1.2 2.112-2.902 3.255-2.914 16.646-.183 33.294-.13 49.941-.078.754.002 1.506.514 2.403 1.208z"/><path fill="#F38465" d="M197.003 563.74H181.32v-6.478H226.8c1.795 5.647 1.278 6.458-4.31 6.473-8.329.023-16.658.006-25.486.005z"/><path fill="#DCDCDB" d="M206 591.015c5.647 0 10.795-.062 15.94.037 1.625.031 3.484.094 4.787.883 1.09.66 2.02 2.387 2.061 3.672.024.763-1.805 2.265-2.814 2.277-13.613.153-27.23.176-40.841-.038-1.059-.016-3.138-2.404-2.912-3.056.506-1.465 2.11-3.525 3.363-3.593 6.623-.36 13.274-.177 20.416-.182z"/><path fill="#D9D9D8" d="M228.025 660.002c12.968 0 25.439-.041 37.91.042 2.048.014 4.951-1.142 5.072 2.82.119 3.87-2.597 3.124-4.794 3.129-14.8.031-29.598.032-44.397-.004-2.184-.005-4.915.78-4.821-3.1.096-3.962 2.982-2.693 5.048-2.856 1.818-.144 3.656-.03 5.982-.03zM244 625.99c7.815 0 15.13-.027 22.445.02 2.036.012 4.493-.685 4.576 2.857.08 3.407-2.108 3.137-4.318 3.136a49363.62 49363.62 0 0 0-44.389-.003c-2.201 0-4.406.29-4.332-3.123.077-3.539 2.53-2.852 4.57-2.866 6.983-.047 13.966-.02 21.448-.02z"/><path fill="#DAD9D8" d="M165 547.01c-7.649-.001-14.797-.005-21.946-.001-2.036 0-4.034.223-4.085-2.874-.049-2.907 1.566-3.168 3.816-3.163 15.128.037 30.257.037 45.386.001 2.236-.005 3.878.228 3.84 3.143-.04 3.085-2.017 2.898-4.067 2.896-7.482-.007-14.963-.002-22.944-.002z"/><path fill="#F3896C" d="M128 489.224h24.595v6.318h-44.462v-6.318H128z"/><path fill="#474F59" d="M201.217 540.838c15.735.002 30.995.002 46.641.002.098 2.088.18 3.835.278 5.961h-51.311c-.77-3.525-1.302-6.646 4.392-5.963z"/><path fill="#D9D9D8" d="M157.297 387.562c.449 1.734.565 3.18.715 5.063-1.855.15-3.293.364-4.731.367-13.485.026-26.97.035-40.455-.005-2.177-.006-4.905.801-4.848-3.09.052-3.542 2.513-2.886 4.56-2.878 14.81.057 29.617.163 44.759.543z"/><path fill="#F37C5A" d="M305.998 660.002h16.725v5.835h-46.555l-.334-5.835h30.164z"/><path fill="#596069" d="M177.017 595.01c-.75 1.26-1.491 2.77-2.25 2.78-12.061.149-24.125.105-36.438.105v-6.56h17.274c5.972-.001 11.945.074 17.914-.042 2.419-.047 3.905.492 3.5 3.717z"/><path fill="#DCDCDA" d="M223.068 578.934c-.173-2.825.209-4.882 3.248-4.887 11.628-.02 23.256-.008 35.278-.008v6.954H248.8c-6.997 0-13.996.097-20.989-.074-1.579-.039-3.135-1.011-4.743-1.985z"/><path fill="#DCDCDB" d="M138.149 478.995h-5.23c-1.504-6.032-.95-6.935 4.182-6.963 9.648-.051 19.298.037 28.946-.047 2.556-.022 4.033.45 4.034 3.51.001 3.037-1.425 3.56-4.006 3.535-9.15-.09-18.3-.035-27.926-.035z"/><path fill="#7DCEDC" d="M369.586 387.032c1.214 1.667 1.978 3.314 3.24 6.04h-18.259c-7.327.001-14.656-.079-21.98.047-2.612.045-4.62-.786-4.104-3.445.217-1.12 2.706-2.533 4.184-2.558 12.153-.201 24.311-.107 36.92-.084z"/><path fill="#535A63" d="M107.884 457.126c.57-.96 1.114-1.892 1.666-1.896 11.448-.085 22.898-.064 34.655-.064v6.416h-35.984c-.109-1.212-.234-2.604-.337-4.456zM111.194 556.967h33.044v6.396h-36.382c1.005-2.407-2.652-6.17 3.338-6.396z"/><path fill="#DAD9D8" d="M202.687 529.992c-11.939.005-23.411.026-34.884-.012-2.186-.007-4.891.772-4.82-3.107.066-3.542 2.528-2.86 4.567-2.865 11.639-.034 23.279-.083 34.915.093 1.174.017 2.326 1.502 3.488 2.305-.933 1.194-1.866 2.388-3.266 3.586z"/><path fill="#485159" d="M345.639 649.147c-13.743.016-27.024.016-40.597.016v-5.996h43.401c-.905 2.306-1.624 4.135-2.804 5.98z"/><path fill="#7DCEDC" d="M282.127 632h-5.797v-5.772h42.257V632h-36.46z"/><path fill="#88D2DF" d="M179.39 472.15c10.28-.024 20.102-.02 29.924-.035 2.267-.004 4.413-.034 4.528 3.168.12 3.343-1.843 3.717-4.503 3.7-10.607-.066-21.215-.027-33.52-.027 1.37-2.988 2.242-4.886 3.571-6.805z"/><path fill="#DCDCDA" d="M115.101 427.983h-6.72v-6.977h15.818c5.316 0 10.633.09 15.946-.033 2.633-.06 3.942.618 3.946 3.591.005 3.118-1.595 3.47-4.087 3.446-8.138-.078-16.278-.027-24.903-.027z"/><path fill="#D8D8D7" d="M251.633 524.015c.752 1.755 1.028 3.5 1.261 5.63-12.325.375-24.609.402-36.891.314-2.065-.014-4.943 1.085-5.028-2.86-.084-3.868 2.648-3.08 4.826-3.087 11.785-.036 23.57-.01 35.832.003zM295.716 608.289c3.252 1.797 6.212 3.895 9.366 6.275-13.62.332-27.435.366-41.25.447-2.212.013-3.904-.164-3.868-3.112.037-3.087 2.006-2.887 4.063-2.91 10.466-.12 20.932-.264 31.69-.7z"/><path fill="#D9D9D8" d="M177.185 631.999c-2.717-.082-5.358.634-5.22-3.209.128-3.567 2.662-2.765 4.656-2.775 10.647-.052 21.294-.033 31.94-.017 2.11.003 4.463-.51 4.478 2.978.015 3.473-2.305 3.015-4.436 3.017-10.314.012-20.628.006-31.418.006z"/><path fill="#474F59" d="M202.005 680.967c-.04-2.29-.372-4.043 2.573-4.015 12.57.119 25.143.05 38.013.05v6.16H214.85c-3.316 0-6.64.125-9.942-.087-.996-.063-1.932-1.068-2.903-2.108z"/><path fill="#7DCEDC" d="M200.003 649.08H184.84c-1.554-4.497-.683-6.315 3.94-6.228 11.755.219 23.518.072 35.878.072l.4 6.156h-25.055z"/><path fill="#F37C5A" d="M205.897 666.128h-31.652l-.317-5.722h37.835v5.722h-5.866z"/><path fill="#DCDCDA" d="M173.121 574.017c6.121 0 11.766.194 17.39-.059 4.852-.217 6.37 1.745 4.864 7.004-9.858 0-19.907.057-29.951-.107-.813-.013-2.246-1.535-2.247-2.358-.001-1.189.812-3.165 1.684-3.42 2.482-.729 5.17-.757 8.26-1.06z"/><path fill="#F37C5A" d="M448.439 642.9c1.764 1.161 3.07 2.372 4.534 3.878-.58.975-1.314 2.24-2.06 2.247-11.755.125-23.512.088-35.568.088l-.322-6.164c11.175 0 22.066 0 33.416-.05z"/><path fill="#D9D9D8" d="M128.996 614.998c-5.983 0-11.467-.005-16.95.002-2.041.003-4.03.21-4.078-2.88-.045-2.918 1.597-3.155 3.832-3.144 9.471.043 18.943.043 28.415-.002 2.238-.01 3.875.234 3.83 3.148-.048 3.093-2.043 2.88-4.08 2.876-3.49-.006-6.98 0-10.97 0zM269.139 642.99c8.957.001 17.434.016 25.912-.007 2.117-.006 3.97-.037 3.98 2.989.01 2.984-1.76 3.057-3.922 3.05-8.81-.033-17.622.086-26.43-.087-2.077-.04-5.432 1.62-5.648-2.677-.235-4.691 3.358-2.856 6.108-3.268z"/><path fill="#F3886B" d="M254.495 489.244c.127 2.234-.21 4.457-.626 6.946-9.631.267-19.183.267-28.482.267-1.838-6.59-1.405-7.211 4.33-7.224 8.104-.017 16.21-.002 24.778.011z"/><path fill="#DAD9D8" d="M248.428 681.52c-.913-3.362.11-4.612 3.313-4.565 9.276.136 18.557-.035 27.83.161 1.153.025 3.029 1.41 3.198 2.4.172 1.001-1.347 3.295-2.151 3.307-10.257.154-20.52.009-30.78-.112-.405-.005-.804-.528-1.41-1.192z"/><path fill="#DADAD8" d="M361.074 649.01c-2.314-.017-4.215.26-5.938-.174-.877-.221-2.06-1.778-1.98-2.625.106-1.114 1.3-3.023 2.06-3.04a705.646 705.646 0 0 1 29.4-.01c.8.016 2.344 2.077 2.159 2.861-.271 1.147-1.768 2.813-2.788 2.846-7.469.245-14.95.138-22.913.142z"/><path fill="#D9D9D8" d="M293.899 393.009c-7.963-.001-15.438-.014-22.914.004-2.088.005-3.99.103-4.013-2.948-.023-2.962 1.7-3.088 3.887-3.078 8.472.04 16.944-.001 25.416.026 2.236.008 4.87-.651 4.74 3.189-.12 3.565-2.64 2.642-4.636 2.798-.66.052-1.328.008-2.48.009z"/><path fill="#F37D5C" d="M173.934 608.879h7.714v5.847h-32.214v-5.847h24.5z"/><path fill="#D9D9D8" d="M194.49 392.845c-9.25.125-18.063-.006-26.867.227-4.194.111-5.489-1.385-3.943-6.03 9.832 0 19.92-.31 29.972.155 3.91.18 2.455 3.285.837 5.648z"/><path fill="#485159" d="M148.966 523.832h8.915l.305 5.803h-32.548v-5.803h23.328z"/><path fill="#F3886B" d="M217.009 461.884h-12.595v-6.332h27.324v6.332h-14.73z"/><path fill="#D9D9D8" d="M206.983 614.998c-5.645 0-10.794-.005-15.943 0-2.037.003-4.03.218-4.074-2.877-.04-2.909 1.59-3.16 3.83-3.147 8.138.05 16.277.05 24.416 0 2.242-.013 3.866.248 3.822 3.155-.047 3.098-2.049 2.874-4.08 2.87-2.492-.006-4.984-.002-7.971-.001z"/><path fill="#4C545D" d="M171.013 495.945h-11.676v-6.242h26.327l.294 6.242h-14.945z"/><path fill="#F3805F" d="M150.707 427.487c-.91-1.987-1.395-3.862-1.993-6.173h27.17l.292 6.285c-8.628 0-16.837 0-25.47-.112z"/><path fill="#485159" d="M254.507 609.288c.329 1.951.329 3.568.329 5.449h-29.199v-5.784c9.499 0 19.02 0 28.87.335z"/><path fill="#DBDAD9" d="M191.226 494.73c-.738-3.642.476-4.903 3.858-4.807 6.98.197 13.971.078 20.957.05 2.128-.01 3.97-.02 3.978 3 .008 2.993-1.782 3.103-3.94 3.026-8.235-.29-16.472-.568-24.853-1.269z"/><path fill="#DAD9D8" d="M379.387 392.98c-1.055-1.495-1.883-2.936-2.088-4.46-.048-.36 1.998-1.426 3.093-1.445 7.486-.13 14.98-.178 22.46.056 1.074.034 2.096 1.724 3.142 2.647-1.063 1.074-2.094 3.04-3.195 3.08-7.645.272-15.304.144-23.412.121z"/><path fill="#DCDCDA" d="M253.93 455.011h7.696v6.94c-7.145 0-14.216.116-21.272-.156-.827-.032-2.323-2.314-2.163-3.345.194-1.258 1.728-3.169 2.828-3.274 4.109-.392 8.278-.162 12.91-.165z"/><path fill="#D9D9D8" d="M246.977 649.007c-4.812-.002-9.146.207-13.434-.139-1.239-.1-2.35-1.792-3.518-2.755 1.094-1.036 2.155-2.925 3.288-2.968a277.54 277.54 0 0 1 21.403.002c1.125.043 2.178 1.948 3.264 2.993-1.178.954-2.242 2.468-3.56 2.738-2.23.457-4.623.128-7.443.13z"/><path fill="#DADAD8" d="M152.311 563.01c-1.399-1.196-2.335-2.387-3.27-3.578 1.155-.808 2.289-2.275 3.47-2.315 6.641-.227 13.299-.252 19.936.019 1.216.05 3.082 1.592 3.397 2.778.74 2.78-1.376 3.14-3.625 3.121-6.48-.056-12.963-.02-19.908-.025z"/><path fill="#DAD9D8" d="M158.926 632.002c-5.131-.001-9.79.195-14.41-.138-1.221-.089-2.324-1.812-3.481-2.785 1.103-1.027 2.168-2.889 3.316-2.942 6.29-.29 12.6-.095 18.902-.16 2.285-.023 4.327.427 3.567 3.161-.328 1.18-2.114 2.226-3.465 2.765-1.145.457-2.616.097-4.43.1z"/><path fill="#F37C5A" d="M128.834 540.945c5.006-.501 4.812 2.227 4.047 5.723H108.16l-.273-5.725c7.014 0 13.74 0 20.947.002z"/><path fill="#596069" d="M165.343 443.587c-.141-1.876-.141-3.343-.141-5.144h20.367v6.566c-6.726-.339-13.405-.676-20.226-1.422z"/><path fill="#DAD9D8" d="M250 387c3.146.001 5.852-.303 8.433.132 1.299.22 2.37 1.784 3.544 2.74-1.087 1.043-2.13 2.929-3.269 2.99-5.79.306-11.614.306-17.404-.002-1.141-.06-2.186-1.942-3.275-2.984 1.172-.957 2.24-2.523 3.538-2.742 2.58-.437 5.287-.132 8.433-.134z"/><path fill="#DADAD8" d="M177.598 648.97c-6.268.027-12.082-.016-17.895.055-2.306.028-4.322-.47-3.552-3.188.333-1.177 2.223-2.643 3.472-2.707 5.632-.29 11.29-.206 16.934-.057 1.101.03 3.145 1.066 3.099 1.428-.194 1.524-1.014 2.97-2.058 4.469z"/><path fill="#F3805F" d="M111.207 591.757c7.086-.003 13.691-.003 20.592-.003l.282 5.794h-23.824c-.027-2.337-2.117-5.262 2.95-5.791z"/><path fill="#4A525B" d="M273.68 409.63c-.302-1.83-.302-3.323-.302-5.217h22.427v5.556c-7.317 0-14.57 0-22.125-.338z"/><path fill="#575D66" d="M109.36 478.867c-.904-2-1.344-3.954-1.871-6.292h19.275v6.34c-5.745 0-11.344 0-17.405-.048z"/><path fill="#596069" d="M215.38 574.293c1.497 1.843 2.562 3.685 4.131 6.399h-18.81v-6.402c4.76 0 9.503 0 14.679.003z"/><path fill="#4C545D" d="M202.475 386.981c5.896-.013 11.343-.013 17.117-.013v5.852H199.91c.78-2.149 1.448-3.988 2.566-5.839z"/><path fill="#D9D9D8" d="M319.002 409.584c-.109.764-.322.994-.877 1.146-4.5-.226-8.79-.253-13.005-.832-1.462-.201-3.614-1.544-3.925-2.757-.831-3.24 1.798-3.161 4.051-3.146 4.297.028 8.595.008 13.388.008.14 1.97.254 3.555.368 5.581z"/><path fill="#DAD9D8" d="M108.019 407.004c.452-1.234.88-2.693 1.362-2.712 4.97-.19 9.952-.235 14.92-.053.587.021 1.497 1.611 1.564 2.525.072.97-.675 2.872-1.077 2.875-5.411.043-10.825-.153-16.234-.404-.205-.01-.358-1.166-.535-2.23z"/><path fill="#49515A" d="M317.864 386.972h5.654v5.876h-17.45v-5.876h11.796z"/><path fill="#DADAD8" d="M405.768 649.007c-3.956-.004-7.47.225-10.918-.152-1.043-.114-2.658-1.922-2.635-2.923.022-.995 1.702-2.685 2.78-2.79 3.62-.356 7.325-.405 10.937-.013 1.433.156 3.512 1.53 3.89 2.777.827 2.73-1.331 3.248-4.054 3.1z"/><path fill="#DBDAD9" d="M232.242 561.733c-.731-3.638.483-5.022 3.859-4.774 2.97.219 6.007-.213 8.94.188 1.083.149 2.71 1.856 2.71 2.852 0 1.003-1.702 2.851-2.677 2.864-4.227.055-8.46-.425-12.832-1.13z"/><path fill="#82D0DD" d="M192.114 406.142c5.005-.857 9.973-1.316 14.951-1.536.182-.008.732 2.36.601 3.566-.075.688-1.16 1.777-1.828 1.805-3.964.168-7.953.248-11.898-.08-.708-.06-1.246-2.16-1.826-3.755z"/><path fill="#DBDAD9" d="M108.23 528.726c-.727-3.628.47-5.084 3.853-4.768 2.139.2 4.376-.246 6.439.2.972.211 2.26 1.839 2.265 2.83.004.99-1.398 2.818-2.213 2.835-3.396.07-6.802-.404-10.344-1.097z"/><path fill="#F37C5A" d="M225.456 387.454c2.616-.288 4.881-.288 7.409-.288v5.547h-7.76c0-1.553 0-3.262.351-5.26z"/><path fill="#82D0DD" d="M47.368 682.137c2.756-.121 5.097-.291 7.398-.062 3.613.359 6.226 1.787 6.454 6.086.237 4.475-1.635 6.99-5.983 7.54-2.125.27-4.34.37-6.44.052-.971-.148-2.502-1.477-2.508-2.28-.029-3.734.388-7.47 1.079-11.336zM133.92 691.466c-2.759 3.935-10.124 6.863-12.577 4.005-2.482-2.892-2.141-8.205-3.005-12.306 10.733-3.33 15.942-.377 15.583 8.301z"/><path fill="#26323B" d="M870.756 478.231c-2.323-3.957-1.51-7.31 1.962-9.15 1.785-.946 4.95-.85 6.757.13 3.843 2.082 4.232 5.967 1.642 9.195-2.852 3.555-6.078 3.595-10.361-.175zM299.374 572.253c-1.713-2.04-3.426-4.08-4.785-6.488 1.746-.497 3.138-.629 4.458-.754v-9.995h-11.043c-.143-1.77-.285-3.54.261-5.578 24.132-.267 47.574-.267 71.31-.267v-10.437h-77.57c-.31-1.914-.62-3.829-.495-6.2 4.513-.456 8.59-.456 12.883-.456v-10.03h-15.38c.667-7.725 1.333-15.45 2.456-23.627 6.895-.452 13.334-.452 19.988-.452v-10.754h-17.501c3.932-7.578 7.864-15.155 12.406-23.042 8.9-.31 17.189-.31 25.8-.31v-10.879h-16.165c11.855-13.177 26.861-21.003 43.88-24.854 38.463-8.705 77.458 8.655 97.513 42.759 6.83 11.614 10.378 24.135 11.71 37.6 2.875 29.044-7.084 53.213-27.512 73.088-15.608 15.186-34.693 23.248-56.734 24.486-21.577 1.213-40.913-4.45-58.405-16.88a45.27 45.27 0 0 1-6.759-5.925c13.632-.356 27.02-.356 40.361-.356v-10.649h-50.677m97.11 10.643h11.923c.121-1.982.101-3.297.298-4.579.726-4.727-1.08-6.41-5.962-6.122-6.953.41-13.947.103-20.924.102h-22.468v10.599h37.133m-33.014-27.92h-30.851v10.246h40.971v-10.247h-10.12m17.653-91.143h39.442v-10.358h-41.093c.287 3.625.545 6.882 1.65 10.358m-29.622.049h19.142v-10.394h-38.409v10.394H351.5m-30 57.969h-18.12v9.75h41.629v-9.75h-23.508m43.032 10.153h30.443v-9.876h-40.542v9.876h10.1m41.47-4.537.309 4.33h29.439v-9.68h-29.45c-.102 1.524-.199 2.964-.298 5.35m-94.93-33.123c.727 1.197 1.426 3.413 2.186 3.434 8.757.244 17.524.156 26.28.156v-9.925h-28.467v6.335m.82 71.07h12.722v-10.18h-17.276c0 2.497.159 4.797-.04 7.066-.259 2.977 1.428 3.306 4.594 3.113z"/><path fill="#F27C5A" d="M282.001 539.141c25.773-.407 51.543-.407 77.574-.407v10.437c-23.736 0-47.178 0-71.086.058-3.684.212-4.402-2.113-5.047-4.538-.457-1.72-.961-3.429-1.44-5.55z"/><path fill="#F9FAFA" d="M299.31 572.579c16.841-.326 33.619-.326 50.741-.326v10.649c-13.341 0-26.73 0-40.573.11-3.714-3.296-6.972-6.702-10.167-10.433z"/><path fill="#78C6D4" d="M305.662 453.07c5.62-.086 10.906-.086 16.5-.086v10.88c-8.611 0-16.9 0-25.655-.007 2.63-3.573 5.725-7.138 9.155-10.788z"/><path fill="#F7F7F8" d="M283.726 487.475c6.003-.26 11.776-.26 17.731-.26v10.754c-6.654 0-13.093 0-20 .04.368-3.398 1.203-6.836 2.269-10.534z"/><path fill="#FDFDFD" d="M279.063 522.453c5.004-.405 10.058-.405 15.33-.405v10.03c-4.292 0-8.37 0-12.904.086-1.096-3.045-1.736-6.175-2.426-9.71z"/><path fill="#F9FAFA" d="M288.019 555.375c3.578-.359 7.17-.359 11.028-.359v9.995c-1.32.125-2.712.257-4.568.456-2.457-3.2-4.45-6.466-6.46-10.092z"/><path fill="#FDF7F3" d="M609.212 435.845c3.061 1.403 5.965 2.382 8.405 4.042 1.467.998 2.956 3.013 3.054 4.653.083 1.394-1.488 3.548-2.888 4.254-6.49 3.275-13.177 6.161-19.993 9.279-1.394-3.711-.693-5.833 2.885-7.23 4.47-1.745 8.744-3.989 14.35-6.599-5.37-2.446-9.71-4.58-14.177-6.406-3.095-1.265-4.68-2.992-3.039-7.216 3.714 1.71 7.382 3.398 11.403 5.223zM551.61 449.226c-3.085-.864-4.382-2.743-3.533-5.333.523-1.6 1.763-3.457 3.196-4.18 6.344-3.203 12.875-6.037 19.618-9.134 1.563 3.619.91 5.621-2.482 6.991-4.733 1.913-9.322 4.181-14.774 6.662 5.434 2.549 9.986 4.83 14.66 6.825 3.208 1.368 4.281 3.327 2.653 7.065-6.387-2.943-12.684-5.844-19.339-8.896zM583.538 462.554c-.49 3.581-1.709 5.442-5.793 3.554 1.187-5.739 2.355-11.551 3.599-17.347 1.5-6.987 3.184-13.937 4.545-20.95.571-2.94 1.725-4.176 5.641-2.769a9259.532 9259.532 0 0 1-7.992 37.512z"/><path fill="#E57758" d="M395.986 582.896h-36.635v-10.599h22.468c6.977 0 13.971.309 20.924-.102 4.882-.288 6.688 1.395 5.962 6.122-.197 1.282-.177 2.597-.298 4.579h-12.42z"/><path fill="#77C5D3" d="M363.962 554.975h9.628v10.247h-40.971v-10.247h31.343z"/><path fill="#F4F5F5" d="M380.699 463.722c-.682-3.366-.94-6.623-1.227-10.248h41.093v10.358c-13.225 0-26.333 0-39.866-.11z"/><path fill="#E97859" d="M351 463.88h-18.767v-10.393h38.409v10.394H351z"/><path fill="#7CCDDB" d="M322 521.85h23.009v9.75h-41.63v-9.75H322z"/><path fill="#FDFDFD" d="M364.04 532.003h-9.606v-9.876h40.542v9.876h-30.935z"/><path fill="#F37C5A" d="M406.005 526.993c.098-1.913.195-3.353.298-4.877h29.449v9.68h-29.44a242.847 242.847 0 0 1-.307-4.803z"/><path fill="#EF7B5A" d="M311.073 493.882v-5.874h28.467v9.925c-8.756 0-17.523.088-26.28-.156-.76-.021-1.46-2.237-2.187-3.895z"/><path fill="#F7F7F8" d="M311.443 565.41c-2.716.195-4.403-.134-4.143-3.11.198-2.27.04-4.57.04-7.066h17.275v10.178c-4.159 0-8.44 0-13.172-.003z"/></svg>